<svg width="126" height="86" viewBox="0 0 126 86" fill="none" xmlns="http://www.w3.org/2000/svg">
<path d="M0 16.0195H11.6416C14.4239 16.0195 16.8767 16.5605 19 17.6425C21.1478 18.6999 22.8074 20.2 23.9789 22.1426C25.1748 24.0853 25.7727 26.3477 25.7727 28.9297C25.7727 31.5117 25.1748 33.7741 23.9789 35.7167C22.8074 37.6594 21.1478 39.1718 19 40.2537C16.8767 41.3111 14.4239 41.8398 11.6416 41.8398H0V16.0195ZM11.3488 36.934C13.9114 36.934 15.9493 36.2209 17.4625 34.7946C19 33.3437 19.7688 31.3888 19.7688 28.9297C19.7688 26.4706 19 24.5279 17.4625 23.1017C15.9493 21.6508 13.9114 20.9254 11.3488 20.9254H5.93065V36.934H11.3488Z" fill="white"/>
<path d="M68.9052 36.3069H57.0198L54.7524 41.8398H48.6816L60.0917 16.0195H65.943L77.3896 41.8398H71.1726L68.9052 36.3069ZM67.0401 31.7699L62.9808 21.8844L58.9214 31.7699H67.0401Z" fill="white"/>
<path d="M96.3561 41.8398L91.419 34.647H85.97V41.8398H80.0456V16.0195H91.1265C93.3938 16.0195 95.3565 16.4007 97.0143 17.163C98.6966 17.9253 99.9888 19.0073 100.891 20.409C101.793 21.8107 102.244 23.4705 102.244 25.3886C102.244 27.3067 101.781 28.9666 100.854 30.3683C99.9522 31.7453 98.66 32.8027 96.9778 33.5405L102.719 41.8398H96.3561ZM96.2464 25.3886C96.2464 23.9378 95.7831 22.8312 94.8567 22.0689C93.9302 21.282 92.5771 20.8885 90.7973 20.8885H85.97V29.8887H90.7973C92.5771 29.8887 93.9302 29.4953 94.8567 28.7084C95.7831 27.9215 96.2464 26.8149 96.2464 25.3886Z" fill="white"/>
<path d="M111.883 20.8885H103.692V16.0195H126V20.8885H117.808V41.8398H111.883V20.8885Z" fill="white"/>
<path fill-rule="evenodd" clip-rule="evenodd" d="M42.5817 11.947L41.9701 0H33.9758L33.3598 17.2811L42.5817 11.947ZM33.2756 19.6418L42.6966 14.1926L42.7808 15.8364L33.214 21.37L33.2756 19.6418ZM33.1299 23.7307L33.0682 25.4588L42.9798 19.7258L42.8957 18.082L33.1299 23.7307ZM43.0948 21.9713L32.9841 27.8195L31.9772 56.0636H19.9858V46.5528H0.59702L0 46.8981V76.5868H125.91V47.0533L99.9289 58.5664V47.0533L70.4499 58.5664V47.0533L44.968 58.5664L43.0948 21.9713Z" fill="#009C55"/>
<path d="M3.9648 80.033H2.352V84.1523H1.69344V80.033H0.08736V79.4483H3.9648V80.033ZM6.83272 84.2061C6.35784 84.2061 5.93 84.1031 5.5492 83.897C5.1684 83.6864 4.86824 83.3975 4.64872 83.0301C4.43368 82.6627 4.32616 82.2528 4.32616 81.8003C4.32616 81.3479 4.43368 80.9379 4.64872 80.5706C4.86824 80.2032 5.1684 79.9165 5.5492 79.7104C5.93 79.4999 6.35784 79.3946 6.83272 79.3946C7.30312 79.3946 7.72872 79.4999 8.10952 79.7104C8.49032 79.9165 8.78824 80.2032 9.00328 80.5706C9.21832 80.9335 9.32584 81.3434 9.32584 81.8003C9.32584 82.2573 9.21832 82.6695 9.00328 83.0368C8.78824 83.3997 8.49032 83.6864 8.10952 83.897C7.72872 84.1031 7.30312 84.2061 6.83272 84.2061ZM6.83272 83.608C7.17768 83.608 7.4868 83.5296 7.76008 83.3728C8.03784 83.216 8.25512 83.001 8.41192 82.7277C8.5732 82.4499 8.65384 82.1408 8.65384 81.8003C8.65384 81.4599 8.5732 81.153 8.41192 80.8797C8.25512 80.6019 8.03784 80.3847 7.76008 80.2279C7.4868 80.0711 7.17768 79.9927 6.83272 79.9927C6.48776 79.9927 6.17416 80.0711 5.89192 80.2279C5.61416 80.3847 5.39464 80.6019 5.23336 80.8797C5.07656 81.153 4.99816 81.4599 4.99816 81.8003C4.99816 82.1408 5.07656 82.4499 5.23336 82.7277C5.39464 83.001 5.61416 83.216 5.89192 83.3728C6.17416 83.5296 6.48776 83.608 6.83272 83.608ZM12.2467 79.4483C12.856 79.4483 13.3354 79.5939 13.6848 79.8851C14.0342 80.1763 14.209 80.5773 14.209 81.088C14.209 81.5987 14.0342 81.9997 13.6848 82.2909C13.3354 82.5821 12.856 82.7277 12.2467 82.7277H11.0842V84.1523H10.4122V79.4483H12.2467ZM12.2266 82.1431C12.6522 82.1431 12.977 82.0535 13.201 81.8743C13.425 81.6906 13.537 81.4285 13.537 81.088C13.537 80.7475 13.425 80.4877 13.201 80.3085C12.977 80.1248 12.6522 80.033 12.2266 80.033H11.0842V82.1431H12.2266ZM18.2215 80.033H15.8023L15.809 84.1523H15.1437V79.4483H18.2282L18.2215 80.033ZM20.5549 84.2061C20.08 84.2061 19.6522 84.1031 19.2714 83.897C18.8906 83.6864 18.5904 83.3975 18.3709 83.0301C18.1559 82.6627 18.0483 82.2528 18.0483 81.8003C18.0483 81.3479 18.1559 80.9379 18.3709 80.5706C18.5904 80.2032 18.8906 79.9165 19.2714 79.7104C19.6522 79.4999 20.08 79.3946 20.5549 79.3946C21.0253 79.3946 21.4509 79.4999 21.8317 79.7104C22.2125 79.9165 22.5104 80.2032 22.7255 80.5706C22.9405 80.9335 23.048 81.3434 23.048 81.8003C23.048 82.2573 22.9405 82.6695 22.7255 83.0368C22.5104 83.3997 22.2125 83.6864 21.8317 83.897C21.4509 84.1031 21.0253 84.2061 20.5549 84.2061ZM20.5549 83.608C20.8999 83.608 21.209 83.5296 21.4823 83.3728C21.76 83.216 21.9773 83.001 22.1341 82.7277C22.2954 82.4499 22.376 82.1408 22.376 81.8003C22.376 81.4599 22.2954 81.153 22.1341 80.8797C21.9773 80.6019 21.76 80.3847 21.4823 80.2279C21.209 80.0711 20.8999 79.9927 20.5549 79.9927C20.2099 79.9927 19.8963 80.0711 19.6141 80.2279C19.3363 80.3847 19.1168 80.6019 18.9555 80.8797C18.7987 81.153 18.7203 81.4599 18.7203 81.8003C18.7203 82.1408 18.7987 82.4499 18.9555 82.7277C19.1168 83.001 19.3363 83.216 19.6141 83.3728C19.8963 83.5296 20.2099 83.608 20.5549 83.608ZM27.0643 81.713C27.3824 81.7891 27.622 81.9258 27.7833 82.1229C27.9491 82.3155 28.032 82.5642 28.032 82.8688C28.032 83.2765 27.8819 83.5923 27.5817 83.8163C27.286 84.0403 26.8537 84.1523 26.2848 84.1523H24.1344V79.4483H26.1571C26.6723 79.4483 27.0732 79.5536 27.36 79.7642C27.6512 79.9703 27.7968 80.2682 27.7968 80.6579C27.7968 80.9133 27.7318 81.1306 27.6019 81.3098C27.4764 81.489 27.2972 81.6234 27.0643 81.713ZM24.7996 81.5181H26.11C26.4371 81.5181 26.6857 81.4531 26.856 81.3232C27.0307 81.1933 27.118 81.0029 27.118 80.752C27.118 80.5011 27.0307 80.3107 26.856 80.1808C26.6812 80.0464 26.4326 79.9792 26.11 79.9792H24.7996V81.5181ZM26.2713 83.6215C26.9926 83.6215 27.3532 83.3527 27.3532 82.8151C27.3532 82.5463 27.2614 82.3491 27.0777 82.2237C26.8985 82.0938 26.6297 82.0288 26.2713 82.0288H24.7996V83.6215H26.2713ZM31.2715 84.2061C30.7966 84.2061 30.3687 84.1031 29.9879 83.897C29.6071 83.6864 29.307 83.3975 29.0875 83.0301C28.8724 82.6627 28.7649 82.2528 28.7649 81.8003C28.7649 81.3479 28.8724 80.9379 29.0875 80.5706C29.307 80.2032 29.6071 79.9165 29.9879 79.7104C30.3687 79.4999 30.7966 79.3946 31.2715 79.3946C31.7419 79.3946 32.1675 79.4999 32.5483 79.7104C32.9291 79.9165 33.227 80.2032 33.442 80.5706C33.6571 80.9335 33.7646 81.3434 33.7646 81.8003C33.7646 82.2573 33.6571 82.6695 33.442 83.0368C33.227 83.3997 32.9291 83.6864 32.5483 83.897C32.1675 84.1031 31.7419 84.2061 31.2715 84.2061ZM31.2715 83.608C31.6164 83.608 31.9256 83.5296 32.1988 83.3728C32.4766 83.216 32.6939 83.001 32.8507 82.7277C33.012 82.4499 33.0926 82.1408 33.0926 81.8003C33.0926 81.4599 33.012 81.153 32.8507 80.8797C32.6939 80.6019 32.4766 80.3847 32.1988 80.2279C31.9256 80.0711 31.6164 79.9927 31.2715 79.9927C30.9265 79.9927 30.6129 80.0711 30.3307 80.2279C30.0529 80.3847 29.8334 80.6019 29.6721 80.8797C29.5153 81.153 29.4369 81.4599 29.4369 81.8003C29.4369 82.1408 29.5153 82.4499 29.6721 82.7277C29.8334 83.001 30.0529 83.216 30.3307 83.3728C30.6129 83.5296 30.9265 83.608 31.2715 83.608ZM38.759 84.2061C38.2886 84.2061 37.863 84.1031 37.4822 83.897C37.1058 83.6864 36.8102 83.3997 36.5951 83.0368C36.3801 82.6695 36.2726 82.2573 36.2726 81.8003C36.2726 81.3434 36.3801 80.9335 36.5951 80.5706C36.8102 80.2032 37.1081 79.9165 37.4889 79.7104C37.8697 79.4999 38.2953 79.3946 38.7657 79.3946C39.133 79.3946 39.469 79.4573 39.7737 79.5827C40.0783 79.7037 40.3382 79.8851 40.5532 80.1271L40.1164 80.5504C39.7625 80.1786 39.3212 79.9927 38.7926 79.9927C38.4431 79.9927 38.1273 80.0711 37.845 80.2279C37.5628 80.3847 37.341 80.6019 37.1798 80.8797C37.023 81.153 36.9446 81.4599 36.9446 81.8003C36.9446 82.1408 37.023 82.4499 37.1798 82.7277C37.341 83.001 37.5628 83.216 37.845 83.3728C38.1273 83.5296 38.4431 83.608 38.7926 83.608C39.3167 83.608 39.758 83.4199 40.1164 83.0435L40.5532 83.4669C40.3382 83.7088 40.0761 83.8925 39.767 84.0179C39.4623 84.1434 39.1263 84.2061 38.759 84.2061ZM44.8928 83.5677V84.1523H41.479V79.4483H44.7987V80.033H42.151V81.4778H44.5098V82.049H42.151V83.5677H44.8928ZM47.7827 79.4483C48.3919 79.4483 48.8713 79.5939 49.2207 79.8851C49.5702 80.1763 49.7449 80.5773 49.7449 81.088C49.7449 81.5987 49.5702 81.9997 49.2207 82.2909C48.8713 82.5821 48.3919 82.7277 47.7827 82.7277H46.6201V84.1523H45.9481V79.4483H47.7827ZM47.7625 82.1431C48.1881 82.1431 48.5129 82.0535 48.7369 81.8743C48.9609 81.6906 49.0729 81.4285 49.0729 81.088C49.0729 80.7475 48.9609 80.4877 48.7369 80.3085C48.5129 80.1248 48.1881 80.033 47.7625 80.033H46.6201V82.1431H47.7625ZM53.6096 81.713C53.9277 81.7891 54.1673 81.9258 54.3286 82.1229C54.4944 82.3155 54.5773 82.5642 54.5773 82.8688C54.5773 83.2765 54.4272 83.5923 54.127 83.8163C53.8313 84.0403 53.399 84.1523 52.8301 84.1523H50.6797V79.4483H52.7024C53.2176 79.4483 53.6185 79.5536 53.9053 79.7642C54.1965 79.9703 54.3421 80.2682 54.3421 80.6579C54.3421 80.9133 54.2771 81.1306 54.1472 81.3098C54.0217 81.489 53.8425 81.6234 53.6096 81.713ZM51.3449 81.5181H52.6553C52.9824 81.5181 53.231 81.4531 53.4013 81.3232C53.576 81.1933 53.6633 81.0029 53.6633 80.752C53.6633 80.5011 53.576 80.3107 53.4013 80.1808C53.2265 80.0464 52.9779 79.9792 52.6553 79.9792H51.3449V81.5181ZM52.8166 83.6215C53.5379 83.6215 53.8985 83.3527 53.8985 82.8151C53.8985 82.5463 53.8067 82.3491 53.623 82.2237C53.4438 82.0938 53.175 82.0288 52.8166 82.0288H51.3449V83.6215H52.8166ZM55.7 79.4483H56.3653V83.0771L59.1473 79.4483H59.7656V84.1523H59.107V80.5303L56.3182 84.1523H55.7V79.4483ZM63.3355 84.2061C62.8651 84.2061 62.4395 84.1031 62.0587 83.897C61.6824 83.6864 61.3867 83.3997 61.1717 83.0368C60.9567 82.6695 60.8491 82.2573 60.8491 81.8003C60.8491 81.3434 60.9567 80.9335 61.1717 80.5706C61.3867 80.2032 61.6847 79.9165 62.0655 79.7104C62.4463 79.4999 62.8719 79.3946 63.3423 79.3946C63.7096 79.3946 64.0456 79.4573 64.3503 79.5827C64.6549 79.7037 64.9147 79.8851 65.1298 80.1271L64.693 80.5504C64.3391 80.1786 63.8978 79.9927 63.3691 79.9927C63.0197 79.9927 62.7039 80.0711 62.4216 80.2279C62.1394 80.3847 61.9176 80.6019 61.7563 80.8797C61.5995 81.153 61.5211 81.4599 61.5211 81.8003C61.5211 82.1408 61.5995 82.4499 61.7563 82.7277C61.9176 83.001 62.1394 83.216 62.4216 83.3728C62.7039 83.5296 63.0197 83.608 63.3691 83.608C63.8933 83.608 64.3346 83.4199 64.693 83.0435L65.1298 83.4669C64.9147 83.7088 64.6527 83.8925 64.3435 84.0179C64.0389 84.1434 63.7029 84.2061 63.3355 84.2061ZM70.101 79.4483V84.1523H69.429V82.0557H66.7276V84.1523H66.0556V79.4483H66.7276V81.4711H69.429V79.4483H70.101ZM74.6257 82.9763H72.1259L71.6084 84.1523H70.9163L73.0465 79.4483H73.7118L75.8488 84.1523H75.1432L74.6257 82.9763ZM74.3905 82.4387L73.3758 80.1338L72.3611 82.4387H74.3905ZM79.8848 79.4483V84.1523H79.2263V82.7815H77.9293C77.8487 82.7815 77.7882 82.7792 77.7479 82.7747L76.8071 84.1523H76.0948L77.1364 82.6605C76.8004 82.5485 76.5428 82.3626 76.3636 82.1027C76.1844 81.8384 76.0948 81.5181 76.0948 81.1418C76.0948 80.6087 76.265 80.1943 76.6055 79.8986C76.9504 79.5984 77.4141 79.4483 77.9965 79.4483H79.8848ZM76.7735 81.1351C76.7735 81.4845 76.8743 81.7533 77.0759 81.9415C77.282 82.1251 77.5844 82.217 77.9831 82.217H79.2263V80.033H78.0234C77.6202 80.033 77.3111 80.1271 77.096 80.3152C76.881 80.5034 76.7735 80.7767 76.7735 81.1351ZM84.7972 82.0826H83.816V84.1523H83.1575V79.4483H83.816V81.4912H84.8106L86.289 79.4483H87.008L85.328 81.7264L87.0887 84.1523H86.3226L84.7972 82.0826ZM89.8812 84.2061C89.4063 84.2061 88.9784 84.1031 88.5976 83.897C88.2168 83.6864 87.9167 83.3975 87.6972 83.0301C87.4821 82.6627 87.3746 82.2528 87.3746 81.8003C87.3746 81.3479 87.4821 80.9379 87.6972 80.5706C87.9167 80.2032 88.2168 79.9165 88.5976 79.7104C88.9784 79.4999 89.4063 79.3946 89.8812 79.3946C90.3516 79.3946 90.7772 79.4999 91.158 79.7104C91.5388 79.9165 91.8367 80.2032 92.0517 80.5706C92.2668 80.9335 92.3743 81.3434 92.3743 81.8003C92.3743 82.2573 92.2668 82.6695 92.0517 83.0368C91.8367 83.3997 91.5388 83.6864 91.158 83.897C90.7772 84.1031 90.3516 84.2061 89.8812 84.2061ZM89.8812 83.608C90.2261 83.608 90.5352 83.5296 90.8085 83.3728C91.0863 83.216 91.3036 83.001 91.4604 82.7277C91.6216 82.4499 91.7023 82.1408 91.7023 81.8003C91.7023 81.4599 91.6216 81.153 91.4604 80.8797C91.3036 80.6019 91.0863 80.3847 90.8085 80.2279C90.5352 80.0711 90.2261 79.9927 89.8812 79.9927C89.5362 79.9927 89.2226 80.0711 88.9404 80.2279C88.6626 80.3847 88.4431 80.6019 88.2818 80.8797C88.125 81.153 88.0466 81.4599 88.0466 81.8003C88.0466 82.1408 88.125 82.4499 88.2818 82.7277C88.4431 83.001 88.6626 83.216 88.9404 83.3728C89.2226 83.5296 89.5362 83.608 89.8812 83.608ZM97.8219 84.1523L97.8152 80.7251L96.115 83.5811H95.8059L94.1057 80.7453V84.1523H93.4606V79.4483H94.0117L95.9739 82.7546L97.9093 79.4483H98.4603L98.467 84.1523H97.8219ZM103.983 79.4483V84.1523H103.325V80.033H100.597V84.1523H99.9312V79.4483H103.983ZM108.508 82.9763H106.008L105.491 84.1523H104.798L106.929 79.4483H107.594L109.731 84.1523H109.025L108.508 82.9763ZM108.273 82.4387L107.258 80.1338L106.243 82.4387H108.273ZM114.588 79.4483V84.1523H113.916V82.0557H111.215V84.1523H110.543V79.4483H111.215V81.4711H113.916V79.4483H114.588ZM116.055 79.4483H116.721V83.0771L119.503 79.4483H120.121V84.1523H119.462V80.5303L116.674 84.1523H116.055V79.4483ZM125.035 79.4483V84.1523H124.376V82.7815H123.079C122.999 82.7815 122.938 82.7792 122.898 82.7747L121.957 84.1523H121.245L122.286 82.6605C121.95 82.5485 121.693 82.3626 121.514 82.1027C121.334 81.8384 121.245 81.5181 121.245 81.1418C121.245 80.6087 121.415 80.1943 121.755 79.8986C122.1 79.5984 122.564 79.4483 123.147 79.4483H125.035ZM121.923 81.1351C121.923 81.4845 122.024 81.7533 122.226 81.9415C122.432 82.1251 122.734 82.217 123.133 82.217H124.376V80.033H123.173C122.77 80.033 122.461 80.1271 122.246 80.3152C122.031 80.5034 121.923 80.7767 121.923 81.1351Z" fill="white"/>
</svg>
