<svg width="960" height="639" viewBox="0 0 960 639" fill="none" xmlns="http://www.w3.org/2000/svg">
<path d="M784.986 70.4654V56.9597V43.454H872.056H959.126V56.9597V70.4654H928.49H897.854V219.028V367.591H872.056H846.257V219.028V70.4654H815.622H784.986Z" fill="#009C55"/>
<path fill-rule="evenodd" clip-rule="evenodd" d="M4.58203 208.051V369.64L53.7604 368.972C108.395 368.229 114.877 367.223 135.064 356.341C141.369 352.942 148.038 347.435 149.886 344.104C152.12 340.068 152.92 293.473 152.275 204.401L151.311 70.7541L141.614 63.4357C135.451 58.7829 126.051 54.5844 115.815 51.9136C101.304 48.1269 95.0121 47.6492 52.148 47.087L4.58203 46.4624V208.051ZM101.326 208.197C101.326 87.2293 101.043 80.9829 95.4281 78.324C91.5422 76.4822 83.8479 75.53 72.8545 75.53H56.179V208.055V340.579H73.6865C80.9569 340.579 86.3278 341.271 90.2927 340.29C102.752 337.209 101.326 317.619 101.326 208.197Z" fill="#009C55"/>
<path fill-rule="evenodd" clip-rule="evenodd" d="M456.426 45.988C438.935 48.8444 421.937 57.088 412.92 67.089C406.126 74.6268 406.064 75.8305 405.178 221.138L404.288 367.591H430.125H455.959L456.813 317.367L457.668 267.142L481.048 266.646L504.428 266.15V316.87V367.591H530.226H556.025V205.522V43.454L513.296 43.5671C486.801 43.6363 465.195 44.5564 456.426 45.988ZM504.428 239.287V155.72V72.1536H486.875C479.198 72.1536 473.651 71.8154 469.644 73.0041C458.446 76.3264 459.28 91.5761 459.28 159.473V239.287H481.854H504.428Z" fill="#009C55"/>
<path fill-rule="evenodd" clip-rule="evenodd" d="M607.621 205.338V367.591H633.42H659.218V317.789C659.218 290.397 660.067 267.986 661.102 267.986C666.036 267.986 700.641 283.795 703.898 287.536C706.32 290.321 707.591 304.805 707.591 329.685V367.591H733.389H759.188V333.29C759.188 290.666 756.537 284.696 731.877 271.761L714.933 262.874L727.343 259.224C734.166 257.216 743.76 252.544 748.662 248.842L757.575 242.111L758.497 159.65C759.084 107.248 758.22 74.853 756.127 70.7828C751.632 62.0446 733.192 51.2383 716.533 47.5749C706.091 45.2806 691.234 44.369 655.187 43.8169L607.621 43.0859V205.338ZM704.366 155.781C704.366 86.8309 703.76 77.1423 699.3 74.8058C696.062 73.1125 688.487 72.1536 678.338 72.1536H662.443V154.876V237.598H677.168C685.492 237.598 691.285 238.154 695.311 236.959C705.561 233.917 704.366 219.534 704.366 155.781Z" fill="#009C55"/>
<path fill-rule="evenodd" clip-rule="evenodd" d="M237.835 0.0234375L233.766 82.5592H293.305L288.074 0.0234375H237.835ZM228.636 186.626L231.466 129.21H296.262L299.901 186.626L300.128 190.214L303.54 244.042L306.952 297.87L310.136 348.109L320.371 549.065H402.906V412.702H611.04V549.065H682.81V444.999H948.36V549.065V638.778H140.945H0.993164V459.353H140.945V549.065H212.715L220.676 348.109L223.152 297.87L225.806 244.042L228.636 186.626ZM923.24 462.941H707.93V484.472H923.24V462.941ZM420.849 430.645H593.098V452.176H420.849V430.645ZM492.62 466.529H420.849V488.061H492.62V466.529ZM521.328 466.529H593.098V488.061H521.328V466.529ZM765.346 498.826H707.93V520.357H765.346V498.826ZM786.877 498.826H844.293V520.357H786.877V498.826ZM923.241 498.826H865.824V520.357H923.241V498.826Z" fill="#009C55"/>
</svg>
