<svg width="128" height="44" viewBox="0 0 128 44" fill="none" xmlns="http://www.w3.org/2000/svg">
<g clip-path="url(#clip0_2_4563)">
<path fill-rule="evenodd" clip-rule="evenodd" d="M43 11.5734C43 11.8991 42.8704 12.2116 42.6397 12.4419C42.4091 12.6723 42.0962 12.8017 41.77 12.8017H41.65L32.77 32.1753C32.9658 32.3798 33.0849 32.6456 33.1072 32.9276C33.1294 33.2097 33.0535 33.4908 32.8922 33.7234C32.7308 33.9561 32.494 34.1259 32.2218 34.2043C31.9496 34.2827 31.6586 34.2649 31.398 34.1538C31.1374 34.0427 30.9232 33.8451 30.7916 33.5945C30.66 33.3439 30.6191 33.0557 30.6758 32.7784C30.7325 32.5012 30.8833 32.252 31.1027 32.073C31.3221 31.8939 31.5967 31.796 31.88 31.7958H31.96L40.85 12.4022C40.7182 12.2539 40.6243 12.0759 40.5764 11.8834C40.5285 11.691 40.528 11.4898 40.5748 11.2971C40.6217 11.1043 40.7146 10.9258 40.8456 10.7768C40.9766 10.6277 41.1418 10.5126 41.3271 10.4411C41.5124 10.3697 41.7122 10.3442 41.9095 10.3666C42.1068 10.3891 42.2957 10.459 42.4601 10.5702C42.6245 10.6815 42.7595 10.8309 42.8535 11.0055C42.9475 11.1802 42.9978 11.3751 43 11.5734V11.5734ZM7.89 15.508H7.79L1.44 1.62693H11.71C11.8148 1.89319 12.0094 2.11456 12.2602 2.25285C12.511 2.39114 12.8023 2.43766 13.0837 2.38439C13.3652 2.33113 13.6192 2.18141 13.802 1.96109C13.9847 1.74076 14.0847 1.46364 14.0847 1.17755C14.0847 0.891452 13.9847 0.614332 13.802 0.394005C13.6192 0.173677 13.3652 0.0239634 13.0837 -0.0293021C12.8023 -0.0825676 12.511 -0.0360437 12.2602 0.102242C12.0094 0.240527 11.8148 0.461899 11.71 0.728159H0L0.41 1.62693L7 15.9174C6.81206 16.1273 6.70201 16.3952 6.68827 16.6764C6.67453 16.9577 6.75794 17.235 6.92453 17.4622C7.09112 17.6893 7.33078 17.8524 7.6034 17.9241C7.87601 17.9958 8.16503 17.9719 8.42207 17.8562C8.6791 17.7406 8.88855 17.5402 9.01536 17.2888C9.14216 17.0374 9.17862 16.75 9.11864 16.4749C9.05865 16.1999 8.90586 15.9537 8.68583 15.7777C8.46581 15.6016 8.19192 15.5064 7.91 15.508H7.89ZM7.38 5.44173C7.38 5.19879 7.30786 4.96131 7.17271 4.75931C7.03755 4.55731 6.84545 4.39988 6.6207 4.30691C6.39595 4.21394 6.14864 4.18961 5.91004 4.23701C5.67144 4.2844 5.45228 4.40139 5.28026 4.57317C5.10824 4.74496 4.99109 4.96382 4.94363 5.2021C4.89617 5.44037 4.92053 5.68734 5.01363 5.91179C5.10672 6.13624 5.26438 6.32808 5.46665 6.46305C5.66892 6.59802 5.90673 6.67006 6.15 6.67006L21.44 39.9447H25.62L33.53 22.6782C33.8152 22.6781 34.0914 22.579 34.3115 22.3979C34.5316 22.2168 34.6818 21.965 34.7365 21.6855C34.7912 21.406 34.747 21.1162 34.6113 20.8657C34.4757 20.6152 34.2571 20.4195 33.993 20.3122C33.7289 20.2048 33.4356 20.1925 33.1634 20.2772C32.8911 20.362 32.6568 20.5385 32.5005 20.7767C32.3442 21.0149 32.2757 21.3 32.3066 21.5831C32.3375 21.8662 32.466 22.1297 32.67 22.3287L25.05 39.0559H22L7 6.3405C7.12145 6.22456 7.21783 6.08499 7.28319 5.93041C7.34854 5.77583 7.38149 5.60952 7.38 5.44173ZM26.23 41.5425C25.9647 41.5423 25.7065 41.6278 25.4938 41.7862C25.2812 41.9445 25.1255 42.1673 25.05 42.4213H20.1L12.15 25.1249C12.3299 24.9105 12.4311 24.6413 12.437 24.3617C12.4428 24.0821 12.353 23.8089 12.1823 23.5872C12.0115 23.3655 11.7702 23.2086 11.4981 23.1425C11.226 23.0763 10.9394 23.1049 10.6858 23.2235C10.4322 23.342 10.2266 23.5435 10.1032 23.7945C9.97974 24.0455 9.94577 24.3311 10.0069 24.604C10.068 24.877 10.2206 25.1209 10.4393 25.2955C10.6581 25.4701 10.93 25.5649 11.21 25.5643H11.36L19.52 43.3301H25.12C25.2179 43.5257 25.3664 43.6917 25.5501 43.8109C25.7338 43.93 25.9461 43.9981 26.1649 44.0079C26.3837 44.0177 26.6012 43.969 26.7949 43.8668C26.9885 43.7646 27.1514 43.6126 27.2665 43.4265C27.3817 43.2405 27.445 43.027 27.4499 42.8083C27.4548 42.5896 27.4011 42.3736 27.2944 42.1826C27.1877 41.9915 27.0319 41.8324 26.843 41.7216C26.6541 41.6108 26.439 41.5525 26.22 41.5525L26.23 41.5425ZM18 21.1603H17.92L11.07 6.31055C11.2768 6.11356 11.4084 5.85083 11.4423 5.56747C11.4762 5.2841 11.4103 4.99779 11.2558 4.75771C11.1013 4.51763 10.8679 4.33876 10.5957 4.25182C10.3235 4.16488 10.0295 4.1753 9.76419 4.28129C9.49886 4.38727 9.27876 4.58222 9.1417 4.83263C9.00464 5.08304 8.95917 5.3733 9.0131 5.65355C9.06703 5.93381 9.21699 6.18656 9.43722 6.36841C9.65746 6.55026 9.93423 6.64985 10.22 6.65008V6.65008L17.05 21.5498C16.8542 21.7543 16.7351 22.02 16.7128 22.3021C16.6906 22.5842 16.7665 22.8653 16.9279 23.0979C17.0892 23.3305 17.326 23.5004 17.5982 23.5788C17.8704 23.6572 18.1614 23.6394 18.422 23.5283C18.6826 23.4172 18.8968 23.2196 19.0284 22.969C19.16 22.7184 19.2009 22.4302 19.1442 22.1529C19.0875 21.8757 18.9367 21.6265 18.7173 21.4474C18.4979 21.2684 18.2233 21.1705 17.94 21.1703L18 21.1603ZM46 -0.000847176C45.7611 -0.00205068 45.527 0.0662482 45.3264 0.195708C45.1257 0.325167 44.9671 0.510183 44.87 0.728159H35.17L23.59 25.8739L18.28 14.2897C18.4788 14.0866 18.6011 13.821 18.6259 13.5381C18.6507 13.2552 18.5766 12.9725 18.4162 12.738C18.2558 12.5035 18.019 12.3317 17.746 12.252C17.4731 12.1722 17.1809 12.1894 16.9192 12.3005C16.6575 12.4117 16.4425 12.6099 16.3107 12.8616C16.1789 13.1132 16.1385 13.4027 16.1963 13.6808C16.2542 13.9588 16.4067 14.2083 16.628 14.3867C16.8493 14.565 17.1256 14.6613 17.41 14.6592H17.47L23.6 28.0309L35.72 1.63692H44.8C44.8747 1.84754 45.0055 2.03382 45.1784 2.1757C45.3512 2.31759 45.5595 2.4097 45.7809 2.44213C46.0023 2.47456 46.2283 2.44607 46.4347 2.35973C46.6411 2.27339 46.8199 2.13247 46.9521 1.95215C47.0842 1.77182 47.1646 1.55893 47.1845 1.33638C47.2045 1.11383 47.1633 0.890054 47.0653 0.689156C46.9674 0.488257 46.8164 0.317841 46.6287 0.196256C46.441 0.0746719 46.2236 0.00652489 46 -0.000847176V-0.000847176ZM21.43 28.9097C21.1038 28.9097 20.7909 29.0391 20.5603 29.2695C20.3296 29.4999 20.2 29.8123 20.2 30.1381C20.2 30.4638 20.3296 30.7763 20.5603 31.0066C20.7909 31.237 21.1038 31.3664 21.43 31.3664H21.53L23.53 35.8602L37.75 4.99234H40.75L37.25 12.6219H37.15C36.8679 12.6225 36.5945 12.7198 36.3757 12.8977C36.157 13.0755 36.006 13.3231 35.9483 13.5988C35.8906 13.8746 35.9295 14.1618 36.0586 14.4123C36.1877 14.6628 36.399 14.8614 36.6573 14.9747C36.9156 15.0881 37.205 15.1094 37.4771 15.035C37.7492 14.9606 37.9874 14.795 38.1518 14.5661C38.3162 14.3371 38.3968 14.0587 38.3801 13.7775C38.3634 13.4963 38.2504 13.2293 38.06 13.0214L42.15 4.09357H37.15L23.57 33.6533L22.34 30.9569C22.5011 30.781 22.6075 30.5619 22.6461 30.3266C22.6847 30.0913 22.6539 29.8498 22.5574 29.6317C22.4609 29.4136 22.3029 29.2282 22.1027 29.0983C21.9025 28.9683 21.6688 28.8993 21.43 28.8997V28.9097Z" fill="white"/>
<path fill-rule="evenodd" clip-rule="evenodd" d="M46.9998 41.1343V42.7721H50.4498C50.5813 42.7793 50.7124 42.7517 50.8298 42.6922C50.9205 42.6436 50.999 42.5754 51.0598 42.4925C51.1145 42.411 51.152 42.3193 51.1698 42.2229C51.21 42.0487 51.21 41.8677 51.1698 41.6936C51.152 41.5972 51.1145 41.5054 51.0598 41.424C50.999 41.3411 50.9205 41.2728 50.8298 41.2242C50.7122 41.1652 50.5813 41.1377 50.4498 41.1443L46.9998 41.1343ZM51.8298 41.9532C51.8289 42.1228 51.8019 42.2912 51.7498 42.4525C51.6985 42.6171 51.6208 42.7722 51.5198 42.9119C51.4198 43.0508 51.2943 43.1694 51.1498 43.2614C51.0023 43.353 50.8334 43.4047 50.6598 43.4112H46.6598C46.575 43.4112 46.4936 43.3776 46.4336 43.3176C46.3736 43.2577 46.3398 43.1764 46.3398 43.0917V40.8148C46.3398 40.73 46.3736 40.6487 46.4336 40.5888C46.4936 40.5289 46.575 40.4952 46.6598 40.4952H50.5798C50.7618 40.4904 50.9416 40.5353 51.0998 40.625C51.2516 40.7148 51.3841 40.8336 51.4898 40.9746C51.5993 41.1157 51.6839 41.2744 51.7398 41.4439C51.7929 41.6085 51.8199 41.7803 51.8198 41.9532H51.8298ZM54.1598 43.0917C54.1598 43.1778 54.1256 43.2603 54.0647 43.3212C54.0037 43.382 53.921 43.4162 53.8348 43.4162C53.7486 43.4162 53.666 43.382 53.605 43.3212C53.5441 43.2603 53.5098 43.1778 53.5098 43.0917V40.8148C53.5098 40.7287 53.5441 40.6462 53.605 40.5853C53.666 40.5244 53.7486 40.4902 53.8348 40.4902C53.921 40.4902 54.0037 40.5244 54.0647 40.5853C54.1256 40.6462 54.1598 40.7287 54.1598 40.8148V43.0917ZM57.6098 41.9432C57.6098 41.8585 57.6436 41.7772 57.7036 41.7173C57.7636 41.6573 57.845 41.6237 57.9298 41.6237H60.4998C60.6095 41.6212 60.7185 41.6417 60.8198 41.6836C60.9166 41.7231 61.0048 41.7807 61.0798 41.8534C61.1536 41.9275 61.2114 42.0158 61.2498 42.113C61.2903 42.2147 61.3107 42.3232 61.3098 42.4326V42.5824C61.3107 42.6918 61.2903 42.8003 61.2498 42.9019C61.2114 42.9991 61.1536 43.0875 61.0798 43.1616C61.0048 43.2342 60.9166 43.2918 60.8198 43.3313C60.7185 43.3733 60.6095 43.3937 60.4998 43.3913H56.9998C56.8275 43.3952 56.6576 43.3502 56.5098 43.2614C56.3643 43.1709 56.2385 43.052 56.1398 42.9119C56.0385 42.7688 55.9609 42.6103 55.9098 42.4426C55.8578 42.2777 55.8309 42.1061 55.8298 41.9333C55.8298 41.7604 55.8567 41.5885 55.9098 41.424C55.9658 41.2544 56.0504 41.0957 56.1598 40.9546C56.2655 40.8136 56.3981 40.6948 56.5498 40.6051C56.7081 40.5153 56.8879 40.4705 57.0698 40.4752H60.9998C61.0419 40.4752 61.0835 40.4835 61.1223 40.4996C61.1611 40.5156 61.1964 40.5392 61.2261 40.5688C61.2558 40.5985 61.2794 40.6337 61.2955 40.6725C61.3116 40.7113 61.3198 40.7528 61.3198 40.7948C61.3198 40.8368 61.3116 40.8783 61.2955 40.9171C61.2794 40.9559 61.2558 40.9911 61.2261 41.0208C61.1964 41.0505 61.1611 41.074 61.1223 41.09C61.0835 41.1061 61.0419 41.1144 60.9998 41.1144H57.2198C57.0884 41.1072 56.9573 41.1348 56.8398 41.1943C56.7494 41.2432 56.6709 41.3114 56.6098 41.394C56.5552 41.4754 56.5177 41.5672 56.4998 41.6636C56.4597 41.8378 56.4597 42.0188 56.4998 42.1929C56.5177 42.2893 56.5552 42.3811 56.6098 42.4625C56.6709 42.5452 56.7494 42.6134 56.8398 42.6623C56.9573 42.7217 57.0884 42.7493 57.2198 42.7422H60.4798C60.5068 42.7411 60.5332 42.7343 60.5574 42.7223C60.5815 42.7102 60.6028 42.6932 60.6198 42.6722C60.6595 42.6246 60.6808 42.5644 60.6798 42.5025C60.6791 42.4408 60.658 42.3811 60.6198 42.3327C60.6023 42.3099 60.5795 42.2917 60.5534 42.2795C60.5273 42.2674 60.4986 42.2616 60.4698 42.2628H57.9298C57.845 42.2628 57.7636 42.2291 57.7036 42.1692C57.6436 42.1093 57.6098 42.028 57.6098 41.9432V41.9432ZM63.6098 43.0817C63.6098 43.1678 63.5756 43.2503 63.5147 43.3112C63.4537 43.3721 63.371 43.4062 63.2848 43.4062C63.1987 43.4062 63.116 43.3721 63.055 43.3112C62.9941 43.2503 62.9598 43.1678 62.9598 43.0817V40.8148C62.9598 40.7287 62.9941 40.6462 63.055 40.5853C63.116 40.5244 63.1987 40.4902 63.2848 40.4902C63.371 40.4902 63.4537 40.5244 63.5147 40.5853C63.5756 40.6462 63.6098 40.7287 63.6098 40.8148V43.0917V43.0817ZM70.2498 40.4752C70.3347 40.4752 70.4161 40.5089 70.4761 40.5688C70.5361 40.6288 70.5698 40.7101 70.5698 40.7948C70.5706 40.8356 70.563 40.8762 70.5476 40.9139C70.5321 40.9517 70.509 40.9859 70.4798 41.0145C70.4243 41.0721 70.3497 41.1076 70.2698 41.1144H68.9998C68.8832 41.1192 68.7696 41.1536 68.6698 41.2142C68.5891 41.2651 68.5208 41.3333 68.4698 41.414C68.4212 41.4938 68.3873 41.5818 68.3698 41.6736C68.3617 41.76 68.3617 41.8469 68.3698 41.9333V43.0717C68.3698 43.1578 68.3356 43.2403 68.2747 43.3012C68.2137 43.3621 68.131 43.3963 68.0448 43.3963C67.9586 43.3963 67.876 43.3621 67.815 43.3012C67.7541 43.2403 67.7198 43.1578 67.7198 43.0717V41.9432C67.719 41.8019 67.7358 41.661 67.7698 41.5238C67.8048 41.384 67.8586 41.2496 67.9298 41.1244H65.7298C65.645 41.1244 65.5636 41.0907 65.5036 41.0308C65.4436 40.9708 65.4098 40.8895 65.4098 40.8048C65.4098 40.72 65.4436 40.6388 65.5036 40.5788C65.5636 40.5189 65.645 40.4852 65.7298 40.4852L70.2498 40.4752ZM73.4099 42.6722C73.4122 42.578 73.447 42.4874 73.5084 42.4158C73.5699 42.3442 73.6542 42.296 73.7471 42.2793C73.8401 42.2626 73.9359 42.2785 74.0185 42.3242C74.1011 42.3699 74.1653 42.4427 74.2004 42.5302C74.2355 42.6178 74.2392 42.7147 74.211 42.8047C74.1827 42.8947 74.1243 42.9722 74.0454 43.0241C73.9666 43.076 73.8723 43.0992 73.7783 43.0896C73.6844 43.0801 73.5966 43.0385 73.5298 42.9718C73.4901 42.933 73.4589 42.8863 73.4382 42.8347C73.4175 42.7831 73.4079 42.7278 73.4099 42.6722V42.6722ZM71.9898 43.2714L73.5698 41.1743L73.6798 41.0545C73.6985 41.0348 73.721 41.0192 73.7459 41.0085C73.7709 40.9978 73.7977 40.9923 73.8248 40.9923C73.852 40.9923 73.8788 40.9978 73.9037 41.0085C73.9287 41.0192 73.9512 41.0348 73.9698 41.0545L74.0898 41.1743L75.6599 43.2614C75.6886 43.3033 75.7276 43.3372 75.773 43.3599C75.8185 43.3826 75.869 43.3934 75.9198 43.3913C76.0047 43.3913 76.0861 43.3576 76.1461 43.2977C76.2061 43.2377 76.2398 43.1565 76.2398 43.0717C76.2482 43.0322 76.2482 42.9914 76.2398 42.9519C76.2211 42.9156 76.1975 42.882 76.1698 42.852L74.5398 40.675C74.4614 40.5714 74.3583 40.489 74.2398 40.4353C74.1173 40.3738 73.982 40.3418 73.8448 40.3418C73.7077 40.3418 73.5724 40.3738 73.4498 40.4353C73.332 40.4944 73.2294 40.5799 73.1498 40.685L71.5198 42.9419C71.4736 42.9942 71.4487 43.0619 71.4498 43.1316C71.4498 43.1979 71.4704 43.2625 71.5087 43.3166C71.5471 43.3706 71.6013 43.4115 71.6639 43.4334C71.7265 43.4554 71.7944 43.4573 71.8582 43.439C71.9219 43.4207 71.9784 43.3831 72.0198 43.3313L71.9898 43.2714ZM78.8398 43.3913C78.7163 43.3926 78.5939 43.3688 78.4799 43.3214C78.2626 43.233 78.0873 43.0651 77.9898 42.852C77.9414 42.7419 77.9175 42.6227 77.9198 42.5025V40.8148C77.9198 40.73 77.9536 40.6487 78.0136 40.5888C78.0736 40.5289 78.155 40.4952 78.2398 40.4952C78.2823 40.4937 78.3246 40.5008 78.3642 40.5163C78.4038 40.5318 78.4397 40.5552 78.4698 40.5851C78.5016 40.6143 78.5269 40.6498 78.5441 40.6894C78.5614 40.7289 78.5701 40.7717 78.5698 40.8148V42.5225C78.5705 42.5548 78.5779 42.5866 78.5917 42.6159C78.6055 42.6451 78.6253 42.6711 78.6498 42.6922C78.6737 42.7152 78.7019 42.7332 78.7328 42.7452C78.7637 42.7572 78.7967 42.763 78.8298 42.7621H82.8298C82.916 42.7621 82.9987 42.7963 83.0597 42.8572C83.1206 42.9181 83.1548 43.0006 83.1548 43.0867C83.1548 43.1728 83.1206 43.2553 83.0597 43.3162C82.9987 43.377 82.916 43.4112 82.8298 43.4112L78.8398 43.3913ZM89.8398 42.6623C89.829 42.5686 89.8509 42.474 89.9018 42.3946C89.9528 42.3151 90.0296 42.2557 90.1193 42.2263C90.2091 42.1969 90.3062 42.1993 90.3944 42.2332C90.4825 42.267 90.5563 42.3303 90.6031 42.4122C90.65 42.4941 90.6671 42.5896 90.6516 42.6826C90.636 42.7757 90.5888 42.8605 90.5179 42.9228C90.4469 42.9851 90.3567 43.021 90.2623 43.0245C90.1679 43.0279 90.0752 42.9988 89.9998 42.9419C89.9601 42.903 89.9289 42.8563 89.9082 42.8047C89.8875 42.7531 89.8779 42.6978 89.8798 42.6423L89.8398 42.6623ZM88.4198 43.2614L89.9998 41.1643L90.1098 41.0445C90.1285 41.0248 90.151 41.0092 90.176 40.9985C90.2009 40.9878 90.2277 40.9823 90.2548 40.9823C90.282 40.9823 90.3088 40.9878 90.3337 40.9985C90.3587 41.0092 90.3812 41.0248 90.3999 41.0445L90.5198 41.1643L92.0898 43.2515C92.1186 43.2933 92.1576 43.3272 92.2031 43.3499C92.2485 43.3726 92.299 43.3834 92.3498 43.3813C92.4347 43.3813 92.5161 43.3476 92.5761 43.2877C92.6361 43.2278 92.6698 43.1465 92.6698 43.0617C92.6782 43.0222 92.6782 42.9814 92.6698 42.9419C92.6511 42.9056 92.6275 42.8721 92.5998 42.842L90.9998 40.685C90.9214 40.5813 90.8183 40.4989 90.6998 40.4453C90.5773 40.3838 90.442 40.3518 90.3048 40.3518C90.1677 40.3518 90.0324 40.3838 89.9099 40.4453C89.792 40.5044 89.6894 40.5899 89.6098 40.6949L87.9998 42.9419C87.9536 42.9942 87.9287 43.0619 87.9298 43.1316C87.9298 43.1979 87.9504 43.2625 87.9887 43.3166C88.0271 43.3706 88.0813 43.4115 88.1439 43.4334C88.2065 43.4554 88.2744 43.4573 88.3382 43.439C88.4019 43.4207 88.4584 43.3831 88.4998 43.3313L88.4198 43.2614ZM95.9998 41.9432C95.9998 41.8585 96.0336 41.7772 96.0936 41.7173C96.1536 41.6573 96.235 41.6237 96.3198 41.6237H98.8898C98.9995 41.6212 99.1085 41.6417 99.2098 41.6836C99.3066 41.7231 99.3948 41.7807 99.4699 41.8534C99.5436 41.9275 99.6014 42.0158 99.6398 42.113C99.6803 42.2147 99.7007 42.3232 99.6998 42.4326V42.5824C99.7007 42.6918 99.6803 42.8003 99.6398 42.9019C99.6014 42.9991 99.5436 43.0875 99.4699 43.1616C99.3948 43.2342 99.3066 43.2918 99.2098 43.3313C99.1085 43.3733 98.9995 43.3937 98.8898 43.3913H95.3898C95.2175 43.3952 95.0476 43.3502 94.8999 43.2614C94.7543 43.1709 94.6285 43.052 94.5298 42.9119C94.4285 42.7688 94.3509 42.6103 94.2999 42.4426C94.2478 42.2777 94.2209 42.1061 94.2199 41.9333C94.2198 41.7604 94.2468 41.5885 94.2999 41.424C94.3558 41.2544 94.4404 41.0957 94.5499 40.9546C94.6556 40.8136 94.7881 40.6948 94.9399 40.6051C95.0981 40.5153 95.2779 40.4705 95.4598 40.4752H99.3798C99.4219 40.4752 99.4635 40.4835 99.5023 40.4996C99.5411 40.5156 99.5764 40.5392 99.6061 40.5688C99.6358 40.5985 99.6594 40.6337 99.6755 40.6725C99.6916 40.7113 99.6998 40.7528 99.6998 40.7948C99.6998 40.8368 99.6916 40.8783 99.6755 40.9171C99.6594 40.9559 99.6358 40.9911 99.6061 41.0208C99.5764 41.0505 99.5411 41.074 99.5023 41.09C99.4635 41.1061 99.4219 41.1144 99.3798 41.1144H95.6398C95.5084 41.1072 95.3773 41.1348 95.2599 41.1943C95.1694 41.2432 95.0909 41.3114 95.0298 41.394C94.9752 41.4754 94.9377 41.5672 94.9198 41.6636C94.8797 41.8378 94.8797 42.0188 94.9198 42.1929C94.9377 42.2893 94.9752 42.3811 95.0298 42.4625C95.0909 42.5452 95.1694 42.6134 95.2599 42.6623C95.3773 42.7217 95.5084 42.7493 95.6398 42.7422H98.8999C98.9268 42.7411 98.9533 42.7343 98.9774 42.7223C99.0015 42.7102 99.0228 42.6932 99.0399 42.6722C99.0795 42.6246 99.1008 42.5644 99.0998 42.5025C99.0991 42.4408 99.078 42.3811 99.0399 42.3327C99.0223 42.3099 98.9995 42.2917 98.9734 42.2795C98.9473 42.2674 98.9186 42.2616 98.8898 42.2628H96.3498C96.3054 42.267 96.2605 42.2618 96.2182 42.2477C96.1758 42.2335 96.1369 42.2106 96.1039 42.1805C96.071 42.1504 96.0447 42.1137 96.0267 42.0729C96.0088 42.032 95.9997 41.9879 95.9998 41.9432ZM106.2 41.6237C106.286 41.6237 106.369 41.6579 106.43 41.7187C106.491 41.7796 106.525 41.8622 106.525 41.9482C106.525 42.0343 106.491 42.1169 106.43 42.1777C106.369 42.2386 106.286 42.2728 106.2 42.2728H102.85C102.764 42.2728 102.681 42.2386 102.62 42.1777C102.559 42.1169 102.525 42.0343 102.525 41.9482C102.525 41.8622 102.559 41.7796 102.62 41.7187C102.681 41.6579 102.764 41.6237 102.85 41.6237H106.2ZM102.78 41.1244H106.48C106.565 41.1244 106.646 41.0907 106.706 41.0308C106.766 40.9708 106.8 40.8895 106.8 40.8048C106.8 40.72 106.766 40.6388 106.706 40.5788C106.646 40.5189 106.565 40.4852 106.48 40.4852H102.63C102.448 40.4804 102.268 40.5253 102.11 40.6151C101.958 40.7048 101.826 40.8236 101.72 40.9646C101.61 41.1057 101.526 41.2644 101.47 41.4339C101.417 41.5985 101.39 41.7703 101.39 41.9432C101.391 42.116 101.418 42.2877 101.47 42.4525C101.521 42.6203 101.599 42.7788 101.7 42.9219C101.798 43.062 101.924 43.1809 102.07 43.2714C102.218 43.3602 102.387 43.4052 102.56 43.4013H106.48C106.566 43.4013 106.649 43.3671 106.71 43.3062C106.771 43.2453 106.805 43.1628 106.805 43.0767C106.805 42.9906 106.771 42.9081 106.71 42.8472C106.649 42.7863 106.566 42.7521 106.48 42.7521H102.78C102.648 42.7593 102.517 42.7317 102.4 42.6722C102.309 42.6234 102.231 42.5552 102.17 42.4725C102.115 42.3911 102.078 42.2993 102.06 42.2029C102.02 42.0287 102.02 41.8478 102.06 41.6736C102.078 41.5772 102.115 41.4854 102.17 41.404C102.231 41.3213 102.309 41.2531 102.4 41.2042C102.517 41.1448 102.648 41.1172 102.78 41.1244V41.1244ZM113.1 41.9432C113.109 41.8536 113.109 41.7632 113.1 41.6736C113.082 41.5772 113.045 41.4854 112.99 41.404C112.929 41.3211 112.85 41.2529 112.76 41.2042C112.642 41.1452 112.511 41.1177 112.38 41.1244H109.95C109.818 41.1172 109.687 41.1448 109.57 41.2042C109.479 41.2531 109.401 41.3213 109.34 41.404C109.285 41.4854 109.248 41.5772 109.23 41.6736C109.22 41.7632 109.22 41.8536 109.23 41.9432V43.0817C109.23 43.1678 109.196 43.2503 109.135 43.3112C109.074 43.3721 108.991 43.4062 108.905 43.4062C108.819 43.4062 108.736 43.3721 108.675 43.3112C108.614 43.2503 108.58 43.1678 108.58 43.0817V41.9432C108.58 41.7703 108.607 41.5985 108.66 41.4339C108.716 41.2644 108.8 41.1057 108.91 40.9646C109.016 40.8236 109.148 40.7048 109.3 40.6151C109.458 40.5253 109.638 40.4804 109.82 40.4852H112.64C112.813 40.4918 112.982 40.5434 113.13 40.635C113.274 40.7268 113.4 40.8455 113.5 40.9846C113.601 41.1244 113.678 41.2795 113.73 41.4439C113.782 41.6053 113.809 41.7737 113.81 41.9432V43.0817C113.81 43.1664 113.776 43.2477 113.716 43.3077C113.656 43.3676 113.575 43.4013 113.49 43.4013C113.405 43.4013 113.324 43.3676 113.264 43.3077C113.204 43.2477 113.17 43.1664 113.17 43.0817V41.9432H113.1ZM115.43 41.9432C115.43 41.7703 115.457 41.5985 115.51 41.4339C115.566 41.2644 115.65 41.1057 115.76 40.9646C115.866 40.8236 115.998 40.7048 116.15 40.6151C116.308 40.5253 116.488 40.4804 116.67 40.4852H120.59C120.675 40.4852 120.756 40.5189 120.816 40.5788C120.876 40.6388 120.91 40.72 120.91 40.8048C120.91 40.8895 120.876 40.9708 120.816 41.0308C120.756 41.0907 120.675 41.1244 120.59 41.1244H116.81C116.678 41.1172 116.547 41.1448 116.43 41.2042C116.339 41.2531 116.261 41.3213 116.2 41.404C116.145 41.4854 116.108 41.5772 116.09 41.6736C116.05 41.8478 116.05 42.0287 116.09 42.2029C116.108 42.2993 116.145 42.3911 116.2 42.4725C116.261 42.5552 116.339 42.6234 116.43 42.6722C116.547 42.7317 116.678 42.7593 116.81 42.7521H120.59C120.676 42.7521 120.759 42.7863 120.82 42.8472C120.881 42.9081 120.915 42.9906 120.915 43.0767C120.915 43.1628 120.881 43.2453 120.82 43.3062C120.759 43.3671 120.676 43.4013 120.59 43.4013H116.59C116.418 43.4052 116.248 43.3602 116.1 43.2714C115.954 43.1809 115.828 43.062 115.73 42.9219C115.629 42.7788 115.551 42.6203 115.5 42.4525C115.448 42.2877 115.421 42.1161 115.42 41.9432H115.43ZM124.89 43.0817C124.892 42.9874 124.927 42.8968 124.988 42.8253C125.05 42.7537 125.134 42.7055 125.227 42.6888C125.32 42.6721 125.416 42.6879 125.498 42.7336C125.581 42.7793 125.645 42.8521 125.68 42.9397C125.715 43.0272 125.719 43.1242 125.691 43.2141C125.663 43.3041 125.604 43.3816 125.525 43.4335C125.447 43.4854 125.352 43.5086 125.258 43.4991C125.164 43.4896 125.077 43.4479 125.01 43.3813C124.97 43.3424 124.939 43.2957 124.918 43.2441C124.898 43.1925 124.888 43.1372 124.89 43.0817V43.0817ZM125.31 41.6437H125.77C125.919 41.6238 126.064 41.5799 126.2 41.5138C126.383 41.424 126.557 41.317 126.72 41.1943C126.913 41.0478 127.157 40.8481 127.45 40.5951C127.514 40.539 127.595 40.5071 127.68 40.5052C127.765 40.5052 127.846 40.5389 127.906 40.5988C127.966 40.6587 128 40.74 128 40.8248C128.011 40.8707 128.011 40.9187 128 40.9646C127.976 41.006 127.946 41.0432 127.91 41.0744C127.63 41.3274 127.377 41.5338 127.15 41.6936C126.952 41.842 126.741 41.9724 126.52 42.0831C126.335 42.173 126.141 42.24 125.94 42.2828C125.743 42.3237 125.541 42.3437 125.34 42.3427C125.128 42.3435 124.917 42.3234 124.71 42.2828C124.512 42.2425 124.32 42.1753 124.14 42.0831C123.923 41.9705 123.715 41.8403 123.52 41.6936C123.3 41.5271 123.047 41.3208 122.76 41.0744C122.724 41.0432 122.693 41.006 122.67 40.9646C122.658 40.9187 122.658 40.8707 122.67 40.8248C122.67 40.74 122.704 40.6587 122.764 40.5988C122.824 40.5389 122.905 40.5052 122.99 40.5052C123.029 40.4962 123.07 40.4962 123.11 40.5052L123.22 40.5751C123.507 40.8281 123.747 41.0245 123.94 41.1643C124.102 41.2874 124.277 41.3945 124.46 41.4839C124.599 41.5493 124.747 41.5931 124.9 41.6137C125.036 41.6346 125.173 41.6479 125.31 41.6536V41.6437Z" fill="white"/>
<path fill-rule="evenodd" clip-rule="evenodd" d="M70.23 24.8269C70.2719 26.3826 69.9925 27.9303 69.4093 29.3735C68.8261 30.8167 67.9515 32.1245 66.84 33.2155C65.6996 34.3317 64.3439 35.2048 62.8552 35.7816C61.3664 36.3584 59.7758 36.6269 58.18 36.5709C56.5809 36.6285 54.9869 36.3608 53.4947 35.7839C52.0025 35.2071 50.6434 34.3332 49.5 33.2155C48.383 32.1277 47.5034 30.8209 46.9165 29.3773C46.3297 27.9337 46.0483 26.3844 46.09 24.8269C46.0483 23.2694 46.3297 21.7201 46.9165 20.2765C47.5034 18.8328 48.383 17.5261 49.5 16.4383C50.6434 15.3206 52.0025 14.4467 53.4947 13.8699C54.9869 13.293 56.5809 13.0253 58.18 13.0829C59.7758 13.0269 61.3664 13.2954 62.8552 13.8722C64.3439 14.449 65.6996 15.3221 66.84 16.4383C67.9515 17.5292 68.8261 18.837 69.4093 20.2803C69.9925 21.7235 70.2719 23.2712 70.23 24.8269V24.8269ZM66.36 24.8269C66.4074 23.6771 66.2109 22.5302 65.7835 21.4615C65.3561 20.3928 64.7075 19.4263 63.88 18.6254C62.322 17.1858 60.2775 16.3862 58.155 16.3862C56.0324 16.3862 53.988 17.1858 52.43 18.6254C51.5974 19.4234 50.9439 20.3889 50.513 21.458C50.082 22.5271 49.8833 23.6754 49.93 24.8269C49.8833 25.9784 50.082 27.1267 50.513 28.1958C50.9439 29.2649 51.5974 30.2304 52.43 31.0284C53.988 32.4679 56.0324 33.2676 58.155 33.2676C60.2775 33.2676 62.322 32.4679 63.88 31.0284C64.7075 30.2275 65.3561 29.261 65.7835 28.1923C66.2109 27.1236 66.4074 25.9767 66.36 24.8269V24.8269ZM93.21 35.762H89L82.8 27.1637L76.56 35.762H72.33L80.74 24.4574L72.86 13.8519H76.93L82.8 21.7611L88.62 13.8519H92.7L84.84 24.4973L93.21 35.772V35.762ZM118.41 24.777H99.19C99.0853 27.0304 99.8191 29.2429 101.25 30.9885C101.963 31.8023 102.849 32.4456 103.845 32.8708C104.84 33.2961 105.918 33.4924 107 33.4451C110.5 33.4451 112.817 31.9871 113.95 29.0711H117.81C116.043 34.1042 112.437 36.6208 106.99 36.6208C105.412 36.6904 103.837 36.4226 102.372 35.8353C100.906 35.248 99.5823 34.3548 98.49 33.2155C96.3909 30.9286 95.2805 27.9068 95.4 24.8069C95.3556 23.2575 95.623 21.7149 96.1864 20.2706C96.7498 18.8263 97.5977 17.5095 98.68 16.3984C100.9 14.2545 103.862 13.0477 106.95 13.0291C110.038 13.0105 113.014 14.1815 115.26 16.2985C116.33 17.4321 117.163 18.7678 117.709 20.2272C118.255 21.6866 118.504 23.2403 118.44 24.7969L118.41 24.777ZM114.52 22.0707C114.068 20.3111 113.058 18.745 111.64 17.6067C110.324 16.5525 108.687 15.9782 107 15.979C105.326 15.9646 103.7 16.5331 102.4 17.5868C100.962 18.7195 99.9478 20.3024 99.52 22.0806L114.52 22.0707ZM127.79 35.732H124.13V0.320312H127.79V35.732Z" fill="white"/>
<path fill-rule="evenodd" clip-rule="evenodd" d="M46.9998 41.1343V42.7721H50.4498C50.5813 42.7793 50.7124 42.7517 50.8298 42.6922C50.9205 42.6436 50.999 42.5754 51.0598 42.4925C51.1145 42.411 51.152 42.3193 51.1698 42.2229C51.21 42.0487 51.21 41.8677 51.1698 41.6936C51.152 41.5972 51.1145 41.5054 51.0598 41.424C50.999 41.3411 50.9205 41.2728 50.8298 41.2242C50.7122 41.1652 50.5813 41.1377 50.4498 41.1443L46.9998 41.1343ZM51.8298 41.9532C51.8289 42.1228 51.8019 42.2912 51.7498 42.4525C51.6985 42.6171 51.6208 42.7722 51.5198 42.9119C51.4198 43.0508 51.2943 43.1694 51.1498 43.2614C51.0023 43.353 50.8334 43.4047 50.6598 43.4112H46.6598C46.575 43.4112 46.4936 43.3776 46.4336 43.3176C46.3736 43.2577 46.3398 43.1764 46.3398 43.0917V40.8148C46.3398 40.73 46.3736 40.6487 46.4336 40.5888C46.4936 40.5289 46.575 40.4952 46.6598 40.4952H50.5798C50.7618 40.4904 50.9416 40.5353 51.0998 40.625C51.2516 40.7148 51.3841 40.8336 51.4898 40.9746C51.5993 41.1157 51.6839 41.2744 51.7398 41.4439C51.7929 41.6085 51.8199 41.7803 51.8198 41.9532H51.8298ZM54.1598 43.0917C54.1598 43.1778 54.1256 43.2603 54.0647 43.3212C54.0037 43.382 53.921 43.4162 53.8348 43.4162C53.7486 43.4162 53.666 43.382 53.605 43.3212C53.5441 43.2603 53.5098 43.1778 53.5098 43.0917V40.8148C53.5098 40.7287 53.5441 40.6462 53.605 40.5853C53.666 40.5244 53.7486 40.4902 53.8348 40.4902C53.921 40.4902 54.0037 40.5244 54.0647 40.5853C54.1256 40.6462 54.1598 40.7287 54.1598 40.8148V43.0917ZM57.6098 41.9432C57.6098 41.8585 57.6436 41.7772 57.7036 41.7173C57.7636 41.6573 57.845 41.6237 57.9298 41.6237H60.4998C60.6095 41.6212 60.7185 41.6417 60.8198 41.6836C60.9166 41.7231 61.0048 41.7807 61.0798 41.8534C61.1536 41.9275 61.2114 42.0158 61.2498 42.113C61.2903 42.2147 61.3107 42.3232 61.3098 42.4326V42.5824C61.3107 42.6918 61.2903 42.8003 61.2498 42.9019C61.2114 42.9991 61.1536 43.0875 61.0798 43.1616C61.0048 43.2342 60.9166 43.2918 60.8198 43.3313C60.7185 43.3733 60.6095 43.3937 60.4998 43.3913H56.9998C56.8275 43.3952 56.6576 43.3502 56.5098 43.2614C56.3643 43.1709 56.2385 43.052 56.1398 42.9119C56.0385 42.7688 55.9609 42.6103 55.9098 42.4426C55.8578 42.2777 55.8309 42.1061 55.8298 41.9333C55.8298 41.7604 55.8567 41.5885 55.9098 41.424C55.9658 41.2544 56.0504 41.0957 56.1598 40.9546C56.2655 40.8136 56.3981 40.6948 56.5498 40.6051C56.7081 40.5153 56.8879 40.4705 57.0698 40.4752H60.9998C61.0419 40.4752 61.0835 40.4835 61.1223 40.4996C61.1611 40.5156 61.1964 40.5392 61.2261 40.5688C61.2558 40.5985 61.2794 40.6337 61.2955 40.6725C61.3116 40.7113 61.3198 40.7528 61.3198 40.7948C61.3198 40.8368 61.3116 40.8783 61.2955 40.9171C61.2794 40.9559 61.2558 40.9911 61.2261 41.0208C61.1964 41.0505 61.1611 41.074 61.1223 41.09C61.0835 41.1061 61.0419 41.1144 60.9998 41.1144H57.2198C57.0884 41.1072 56.9573 41.1348 56.8398 41.1943C56.7494 41.2432 56.6709 41.3114 56.6098 41.394C56.5552 41.4754 56.5177 41.5672 56.4998 41.6636C56.4597 41.8378 56.4597 42.0188 56.4998 42.1929C56.5177 42.2893 56.5552 42.3811 56.6098 42.4625C56.6709 42.5452 56.7494 42.6134 56.8398 42.6623C56.9573 42.7217 57.0884 42.7493 57.2198 42.7422H60.4798C60.5068 42.7411 60.5332 42.7343 60.5574 42.7223C60.5815 42.7102 60.6028 42.6932 60.6198 42.6722C60.6595 42.6246 60.6808 42.5644 60.6798 42.5025C60.6791 42.4408 60.658 42.3811 60.6198 42.3327C60.6023 42.3099 60.5795 42.2917 60.5534 42.2795C60.5273 42.2674 60.4986 42.2616 60.4698 42.2628H57.9298C57.845 42.2628 57.7636 42.2291 57.7036 42.1692C57.6436 42.1093 57.6098 42.028 57.6098 41.9432V41.9432ZM63.6098 43.0817C63.6098 43.1678 63.5756 43.2503 63.5147 43.3112C63.4537 43.3721 63.371 43.4062 63.2848 43.4062C63.1987 43.4062 63.116 43.3721 63.055 43.3112C62.9941 43.2503 62.9598 43.1678 62.9598 43.0817V40.8148C62.9598 40.7287 62.9941 40.6462 63.055 40.5853C63.116 40.5244 63.1987 40.4902 63.2848 40.4902C63.371 40.4902 63.4537 40.5244 63.5147 40.5853C63.5756 40.6462 63.6098 40.7287 63.6098 40.8148V43.0917V43.0817ZM70.2498 40.4752C70.3347 40.4752 70.4161 40.5089 70.4761 40.5688C70.5361 40.6288 70.5698 40.7101 70.5698 40.7948C70.5706 40.8356 70.563 40.8762 70.5476 40.9139C70.5321 40.9517 70.509 40.9859 70.4798 41.0145C70.4243 41.0721 70.3497 41.1076 70.2698 41.1144H68.9998C68.8832 41.1192 68.7696 41.1536 68.6698 41.2142C68.5891 41.2651 68.5208 41.3333 68.4698 41.414C68.4212 41.4938 68.3873 41.5818 68.3698 41.6736C68.3617 41.76 68.3617 41.8469 68.3698 41.9333V43.0717C68.3698 43.1578 68.3356 43.2403 68.2747 43.3012C68.2137 43.3621 68.131 43.3963 68.0448 43.3963C67.9586 43.3963 67.876 43.3621 67.815 43.3012C67.7541 43.2403 67.7198 43.1578 67.7198 43.0717V41.9432C67.719 41.8019 67.7358 41.661 67.7698 41.5238C67.8048 41.384 67.8586 41.2496 67.9298 41.1244H65.7298C65.645 41.1244 65.5636 41.0907 65.5036 41.0308C65.4436 40.9708 65.4098 40.8895 65.4098 40.8048C65.4098 40.72 65.4436 40.6388 65.5036 40.5788C65.5636 40.5189 65.645 40.4852 65.7298 40.4852L70.2498 40.4752ZM73.4099 42.6722C73.4122 42.578 73.447 42.4874 73.5084 42.4158C73.5699 42.3442 73.6542 42.296 73.7471 42.2793C73.8401 42.2626 73.9359 42.2785 74.0185 42.3242C74.1011 42.3699 74.1653 42.4427 74.2004 42.5302C74.2355 42.6178 74.2392 42.7147 74.211 42.8047C74.1827 42.8947 74.1243 42.9722 74.0454 43.0241C73.9666 43.076 73.8723 43.0992 73.7783 43.0896C73.6844 43.0801 73.5966 43.0385 73.5298 42.9718C73.4901 42.933 73.4589 42.8863 73.4382 42.8347C73.4175 42.7831 73.4079 42.7278 73.4099 42.6722V42.6722ZM71.9898 43.2714L73.5698 41.1743L73.6798 41.0545C73.6985 41.0348 73.721 41.0192 73.7459 41.0085C73.7709 40.9978 73.7977 40.9923 73.8248 40.9923C73.852 40.9923 73.8788 40.9978 73.9037 41.0085C73.9287 41.0192 73.9512 41.0348 73.9698 41.0545L74.0898 41.1743L75.6599 43.2614C75.6886 43.3033 75.7276 43.3372 75.773 43.3599C75.8185 43.3826 75.869 43.3934 75.9198 43.3913C76.0047 43.3913 76.0861 43.3576 76.1461 43.2977C76.2061 43.2377 76.2398 43.1565 76.2398 43.0717C76.2482 43.0322 76.2482 42.9914 76.2398 42.9519C76.2211 42.9156 76.1975 42.882 76.1698 42.852L74.5398 40.675C74.4614 40.5714 74.3583 40.489 74.2398 40.4353C74.1173 40.3738 73.982 40.3418 73.8448 40.3418C73.7077 40.3418 73.5724 40.3738 73.4498 40.4353C73.332 40.4944 73.2294 40.5799 73.1498 40.685L71.5198 42.9419C71.4736 42.9942 71.4487 43.0619 71.4498 43.1316C71.4498 43.1979 71.4704 43.2625 71.5087 43.3166C71.5471 43.3706 71.6013 43.4115 71.6639 43.4334C71.7265 43.4554 71.7944 43.4573 71.8582 43.439C71.9219 43.4207 71.9784 43.3831 72.0198 43.3313L71.9898 43.2714ZM78.8398 43.3913C78.7163 43.3926 78.5939 43.3688 78.4799 43.3214C78.2626 43.233 78.0873 43.0651 77.9898 42.852C77.9414 42.7419 77.9175 42.6227 77.9198 42.5025V40.8148C77.9198 40.73 77.9536 40.6487 78.0136 40.5888C78.0736 40.5289 78.155 40.4952 78.2398 40.4952C78.2823 40.4937 78.3246 40.5008 78.3642 40.5163C78.4038 40.5318 78.4397 40.5552 78.4698 40.5851C78.5016 40.6143 78.5269 40.6498 78.5441 40.6894C78.5614 40.7289 78.5701 40.7717 78.5698 40.8148V42.5225C78.5705 42.5548 78.5779 42.5866 78.5917 42.6159C78.6055 42.6451 78.6253 42.6711 78.6498 42.6922C78.6737 42.7152 78.7019 42.7332 78.7328 42.7452C78.7637 42.7572 78.7967 42.763 78.8298 42.7621H82.8298C82.916 42.7621 82.9987 42.7963 83.0597 42.8572C83.1206 42.9181 83.1548 43.0006 83.1548 43.0867C83.1548 43.1728 83.1206 43.2553 83.0597 43.3162C82.9987 43.377 82.916 43.4112 82.8298 43.4112L78.8398 43.3913ZM89.8398 42.6623C89.829 42.5686 89.8509 42.474 89.9018 42.3946C89.9528 42.3151 90.0296 42.2557 90.1193 42.2263C90.2091 42.1969 90.3062 42.1993 90.3944 42.2332C90.4825 42.267 90.5563 42.3303 90.6031 42.4122C90.65 42.4941 90.6671 42.5896 90.6516 42.6826C90.636 42.7757 90.5888 42.8605 90.5179 42.9228C90.4469 42.9851 90.3567 43.021 90.2623 43.0245C90.1679 43.0279 90.0752 42.9988 89.9998 42.9419C89.9601 42.903 89.9289 42.8563 89.9082 42.8047C89.8875 42.7531 89.8779 42.6978 89.8798 42.6423L89.8398 42.6623ZM88.4198 43.2614L89.9998 41.1643L90.1098 41.0445C90.1285 41.0248 90.151 41.0092 90.176 40.9985C90.2009 40.9878 90.2277 40.9823 90.2548 40.9823C90.282 40.9823 90.3088 40.9878 90.3337 40.9985C90.3587 41.0092 90.3812 41.0248 90.3999 41.0445L90.5198 41.1643L92.0898 43.2515C92.1186 43.2933 92.1576 43.3272 92.2031 43.3499C92.2485 43.3726 92.299 43.3834 92.3498 43.3813C92.4347 43.3813 92.5161 43.3476 92.5761 43.2877C92.6361 43.2278 92.6698 43.1465 92.6698 43.0617C92.6782 43.0222 92.6782 42.9814 92.6698 42.9419C92.6511 42.9056 92.6275 42.8721 92.5998 42.842L90.9998 40.685C90.9214 40.5813 90.8183 40.4989 90.6998 40.4453C90.5773 40.3838 90.442 40.3518 90.3048 40.3518C90.1677 40.3518 90.0324 40.3838 89.9099 40.4453C89.792 40.5044 89.6894 40.5899 89.6098 40.6949L87.9998 42.9419C87.9536 42.9942 87.9287 43.0619 87.9298 43.1316C87.9298 43.1979 87.9504 43.2625 87.9887 43.3166C88.0271 43.3706 88.0813 43.4115 88.1439 43.4334C88.2065 43.4554 88.2744 43.4573 88.3382 43.439C88.4019 43.4207 88.4584 43.3831 88.4998 43.3313L88.4198 43.2614ZM95.9998 41.9432C95.9998 41.8585 96.0336 41.7772 96.0936 41.7173C96.1536 41.6573 96.235 41.6237 96.3198 41.6237H98.8898C98.9995 41.6212 99.1085 41.6417 99.2098 41.6836C99.3066 41.7231 99.3948 41.7807 99.4699 41.8534C99.5436 41.9275 99.6014 42.0158 99.6398 42.113C99.6803 42.2147 99.7007 42.3232 99.6998 42.4326V42.5824C99.7007 42.6918 99.6803 42.8003 99.6398 42.9019C99.6014 42.9991 99.5436 43.0875 99.4699 43.1616C99.3948 43.2342 99.3066 43.2918 99.2098 43.3313C99.1085 43.3733 98.9995 43.3937 98.8898 43.3913H95.3898C95.2175 43.3952 95.0476 43.3502 94.8999 43.2614C94.7543 43.1709 94.6285 43.052 94.5298 42.9119C94.4285 42.7688 94.3509 42.6103 94.2999 42.4426C94.2478 42.2777 94.2209 42.1061 94.2199 41.9333C94.2198 41.7604 94.2468 41.5885 94.2999 41.424C94.3558 41.2544 94.4404 41.0957 94.5499 40.9546C94.6556 40.8136 94.7881 40.6948 94.9399 40.6051C95.0981 40.5153 95.2779 40.4705 95.4598 40.4752H99.3798C99.4219 40.4752 99.4635 40.4835 99.5023 40.4996C99.5411 40.5156 99.5764 40.5392 99.6061 40.5688C99.6358 40.5985 99.6594 40.6337 99.6755 40.6725C99.6916 40.7113 99.6998 40.7528 99.6998 40.7948C99.6998 40.8368 99.6916 40.8783 99.6755 40.9171C99.6594 40.9559 99.6358 40.9911 99.6061 41.0208C99.5764 41.0505 99.5411 41.074 99.5023 41.09C99.4635 41.1061 99.4219 41.1144 99.3798 41.1144H95.6398C95.5084 41.1072 95.3773 41.1348 95.2599 41.1943C95.1694 41.2432 95.0909 41.3114 95.0298 41.394C94.9752 41.4754 94.9377 41.5672 94.9198 41.6636C94.8797 41.8378 94.8797 42.0188 94.9198 42.1929C94.9377 42.2893 94.9752 42.3811 95.0298 42.4625C95.0909 42.5452 95.1694 42.6134 95.2599 42.6623C95.3773 42.7217 95.5084 42.7493 95.6398 42.7422H98.8999C98.9268 42.7411 98.9533 42.7343 98.9774 42.7223C99.0015 42.7102 99.0228 42.6932 99.0399 42.6722C99.0795 42.6246 99.1008 42.5644 99.0998 42.5025C99.0991 42.4408 99.078 42.3811 99.0399 42.3327C99.0223 42.3099 98.9995 42.2917 98.9734 42.2795C98.9473 42.2674 98.9186 42.2616 98.8898 42.2628H96.3498C96.3054 42.267 96.2605 42.2618 96.2182 42.2477C96.1758 42.2335 96.1369 42.2106 96.1039 42.1805C96.071 42.1504 96.0447 42.1137 96.0267 42.0729C96.0088 42.032 95.9997 41.9879 95.9998 41.9432ZM106.2 41.6237C106.286 41.6237 106.369 41.6579 106.43 41.7187C106.491 41.7796 106.525 41.8622 106.525 41.9482C106.525 42.0343 106.491 42.1169 106.43 42.1777C106.369 42.2386 106.286 42.2728 106.2 42.2728H102.85C102.764 42.2728 102.681 42.2386 102.62 42.1777C102.559 42.1169 102.525 42.0343 102.525 41.9482C102.525 41.8622 102.559 41.7796 102.62 41.7187C102.681 41.6579 102.764 41.6237 102.85 41.6237H106.2ZM102.78 41.1244H106.48C106.565 41.1244 106.646 41.0907 106.706 41.0308C106.766 40.9708 106.8 40.8895 106.8 40.8048C106.8 40.72 106.766 40.6388 106.706 40.5788C106.646 40.5189 106.565 40.4852 106.48 40.4852H102.63C102.448 40.4804 102.268 40.5253 102.11 40.6151C101.958 40.7048 101.826 40.8236 101.72 40.9646C101.61 41.1057 101.526 41.2644 101.47 41.4339C101.417 41.5985 101.39 41.7703 101.39 41.9432C101.391 42.116 101.418 42.2877 101.47 42.4525C101.521 42.6203 101.599 42.7788 101.7 42.9219C101.798 43.062 101.924 43.1809 102.07 43.2714C102.218 43.3602 102.387 43.4052 102.56 43.4013H106.48C106.566 43.4013 106.649 43.3671 106.71 43.3062C106.771 43.2453 106.805 43.1628 106.805 43.0767C106.805 42.9906 106.771 42.9081 106.71 42.8472C106.649 42.7863 106.566 42.7521 106.48 42.7521H102.78C102.648 42.7593 102.517 42.7317 102.4 42.6722C102.309 42.6234 102.231 42.5552 102.17 42.4725C102.115 42.3911 102.078 42.2993 102.06 42.2029C102.02 42.0287 102.02 41.8478 102.06 41.6736C102.078 41.5772 102.115 41.4854 102.17 41.404C102.231 41.3213 102.309 41.2531 102.4 41.2042C102.517 41.1448 102.648 41.1172 102.78 41.1244V41.1244ZM113.1 41.9432C113.109 41.8536 113.109 41.7632 113.1 41.6736C113.082 41.5772 113.045 41.4854 112.99 41.404C112.929 41.3211 112.85 41.2529 112.76 41.2042C112.642 41.1452 112.511 41.1177 112.38 41.1244H109.95C109.818 41.1172 109.687 41.1448 109.57 41.2042C109.479 41.2531 109.401 41.3213 109.34 41.404C109.285 41.4854 109.248 41.5772 109.23 41.6736C109.22 41.7632 109.22 41.8536 109.23 41.9432V43.0817C109.23 43.1678 109.196 43.2503 109.135 43.3112C109.074 43.3721 108.991 43.4062 108.905 43.4062C108.819 43.4062 108.736 43.3721 108.675 43.3112C108.614 43.2503 108.58 43.1678 108.58 43.0817V41.9432C108.58 41.7703 108.607 41.5985 108.66 41.4339C108.716 41.2644 108.8 41.1057 108.91 40.9646C109.016 40.8236 109.148 40.7048 109.3 40.6151C109.458 40.5253 109.638 40.4804 109.82 40.4852H112.64C112.813 40.4918 112.982 40.5434 113.13 40.635C113.274 40.7268 113.4 40.8455 113.5 40.9846C113.601 41.1244 113.678 41.2795 113.73 41.4439C113.782 41.6053 113.809 41.7737 113.81 41.9432V43.0817C113.81 43.1664 113.776 43.2477 113.716 43.3077C113.656 43.3676 113.575 43.4013 113.49 43.4013C113.405 43.4013 113.324 43.3676 113.264 43.3077C113.204 43.2477 113.17 43.1664 113.17 43.0817V41.9432H113.1ZM115.43 41.9432C115.43 41.7703 115.457 41.5985 115.51 41.4339C115.566 41.2644 115.65 41.1057 115.76 40.9646C115.866 40.8236 115.998 40.7048 116.15 40.6151C116.308 40.5253 116.488 40.4804 116.67 40.4852H120.59C120.675 40.4852 120.756 40.5189 120.816 40.5788C120.876 40.6388 120.91 40.72 120.91 40.8048C120.91 40.8895 120.876 40.9708 120.816 41.0308C120.756 41.0907 120.675 41.1244 120.59 41.1244H116.81C116.678 41.1172 116.547 41.1448 116.43 41.2042C116.339 41.2531 116.261 41.3213 116.2 41.404C116.145 41.4854 116.108 41.5772 116.09 41.6736C116.05 41.8478 116.05 42.0287 116.09 42.2029C116.108 42.2993 116.145 42.3911 116.2 42.4725C116.261 42.5552 116.339 42.6234 116.43 42.6722C116.547 42.7317 116.678 42.7593 116.81 42.7521H120.59C120.676 42.7521 120.759 42.7863 120.82 42.8472C120.881 42.9081 120.915 42.9906 120.915 43.0767C120.915 43.1628 120.881 43.2453 120.82 43.3062C120.759 43.3671 120.676 43.4013 120.59 43.4013H116.59C116.418 43.4052 116.248 43.3602 116.1 43.2714C115.954 43.1809 115.828 43.062 115.73 42.9219C115.629 42.7788 115.551 42.6203 115.5 42.4525C115.448 42.2877 115.421 42.1161 115.42 41.9432H115.43ZM124.89 43.0817C124.892 42.9874 124.927 42.8968 124.988 42.8253C125.05 42.7537 125.134 42.7055 125.227 42.6888C125.32 42.6721 125.416 42.6879 125.498 42.7336C125.581 42.7793 125.645 42.8521 125.68 42.9397C125.715 43.0272 125.719 43.1242 125.691 43.2141C125.663 43.3041 125.604 43.3816 125.525 43.4335C125.447 43.4854 125.352 43.5086 125.258 43.4991C125.164 43.4896 125.077 43.4479 125.01 43.3813C124.97 43.3424 124.939 43.2957 124.918 43.2441C124.898 43.1925 124.888 43.1372 124.89 43.0817V43.0817ZM125.31 41.6437H125.77C125.919 41.6238 126.064 41.5799 126.2 41.5138C126.383 41.424 126.557 41.317 126.72 41.1943C126.913 41.0478 127.157 40.8481 127.45 40.5951C127.514 40.539 127.595 40.5071 127.68 40.5052C127.765 40.5052 127.846 40.5389 127.906 40.5988C127.966 40.6587 128 40.74 128 40.8248C128.011 40.8707 128.011 40.9187 128 40.9646C127.976 41.006 127.946 41.0432 127.91 41.0744C127.63 41.3274 127.377 41.5338 127.15 41.6936C126.952 41.842 126.741 41.9724 126.52 42.0831C126.335 42.173 126.141 42.24 125.94 42.2828C125.743 42.3237 125.541 42.3437 125.34 42.3427C125.128 42.3435 124.917 42.3234 124.71 42.2828C124.512 42.2425 124.32 42.1753 124.14 42.0831C123.923 41.9705 123.715 41.8403 123.52 41.6936C123.3 41.5271 123.047 41.3208 122.76 41.0744C122.724 41.0432 122.693 41.006 122.67 40.9646C122.658 40.9187 122.658 40.8707 122.67 40.8248C122.67 40.74 122.704 40.6587 122.764 40.5988C122.824 40.5389 122.905 40.5052 122.99 40.5052C123.029 40.4962 123.07 40.4962 123.11 40.5052L123.22 40.5751C123.507 40.8281 123.747 41.0245 123.94 41.1643C124.102 41.2874 124.277 41.3945 124.46 41.4839C124.599 41.5493 124.747 41.5931 124.9 41.6137C125.036 41.6346 125.173 41.6479 125.31 41.6536V41.6437Z" fill="white"/>
</g>
<defs>
<clipPath id="clip0_2_4563">
<rect width="128" height="44" fill="white"/>
</clipPath>
</defs>
</svg>
