<svg width="48" height="48" viewBox="0 0 48 48" fill="none" xmlns="http://www.w3.org/2000/svg">
<g clip-path="url(#clip0_158_610)">
<rect width="48" height="48" fill="white"/>
<path fill-rule="evenodd" clip-rule="evenodd" d="M9.19078 0.0941744C7.68628 0.387987 6.39215 1.71614 6.09778 3.26874C5.96765 3.95489 5.96765 44.0276 6.09778 44.7137C6.39984 46.3066 7.69209 47.6018 9.27384 47.897C9.96684 48.0263 38.0438 48.0261 38.7258 47.8967C40.3187 47.5947 41.6138 46.3024 41.9091 44.7207C41.9699 44.3942 42.0033 38.3154 42.0033 27.5317C42.0033 12.8839 41.9861 10.8115 41.8625 10.5509C41.6736 10.1528 31.7158 0.215487 31.38 0.0899557C31.0521 -0.0326693 9.81956 -0.0286381 9.19078 0.0941744ZM30.0033 5.08786C30.0033 6.80808 30.0457 8.44289 30.0975 8.72067C30.3927 10.3024 31.6879 11.5947 33.2808 11.8967C33.5547 11.9488 35.1864 11.9912 36.9066 11.9912H40.0345V27.971C40.0345 39.3988 40.0046 44.09 39.9297 44.4397C39.8469 44.8256 39.7316 45.0218 39.3828 45.3707C39.0338 45.7196 38.8376 45.8349 38.4517 45.9177C37.7596 46.0661 10.247 46.0661 9.55481 45.9177C8.86406 45.7695 8.22506 45.1305 8.07684 44.4397C7.92787 43.7447 7.92787 4.23774 8.07684 3.54277C8.21587 2.89449 8.87203 2.20805 9.483 2.07174C9.73518 2.01549 13.7781 1.97621 19.9486 1.97002L30.0033 1.95999V5.08786ZM36.3085 10.0008C33.5392 10.0321 33.233 9.97992 32.6254 9.37224C32.0245 8.77139 31.972 8.47486 31.972 5.68242V3.41414L35.2538 6.69483L38.5357 9.97561L36.3085 10.0008ZM22.0081 16.1512C20.827 16.5926 20.2285 17.5753 20.0619 19.3466C19.8961 21.11 20.4168 22.6022 21.982 24.8492L22.4452 25.5141L21.8544 27.3074C21.102 29.5917 20.361 31.6017 20.2213 31.7374C20.1615 31.7955 18.9947 32.3796 17.6283 33.0355C14.6711 34.455 13.6255 35.0535 12.9627 35.706C12.362 36.2975 12.0976 36.7923 12.0294 37.4528C11.8477 39.2141 14.2794 40.548 16.1491 39.7124C17.9268 38.9179 19.8067 36.8475 21.4062 33.923L21.7427 33.3078L22.8964 32.9205C24.2361 32.4707 25.7175 32.0749 27.3963 31.7183L28.5862 31.4655L29.2244 31.933C30.271 32.6997 30.9438 33.1308 31.7603 33.5582C32.4693 33.9293 32.5867 33.9616 33.1852 33.9506C34.027 33.935 34.474 33.81 35.0288 33.4352C35.5915 33.0553 35.9151 32.4413 35.9802 31.6302C36.0869 30.3004 35.4309 29.4965 33.9552 29.1488C33.2558 28.984 31.2562 29.0023 30.1908 29.1831C29.7009 29.2662 29.2515 29.3344 29.192 29.3346C28.8877 29.3356 26.3421 26.9901 25.1627 25.622L24.6863 25.0694L25.0953 23.7569C25.869 21.2738 25.9982 20.613 25.9472 19.3975C25.8771 17.7267 25.47 16.8169 24.5664 16.3122C24.2358 16.1275 23.998 16.0801 23.2624 16.0525C22.6426 16.0292 22.2523 16.0599 22.0081 16.1512ZM23.7372 18.273C23.9671 18.5821 24.0677 19.8227 23.9197 20.5249C23.8602 20.8072 23.6779 21.4958 23.5146 22.0553C23.1789 23.2048 23.1998 23.2021 22.6702 22.1635C22.1961 21.2338 22.0344 20.6515 22.0351 19.875C22.0357 19.0075 22.1642 18.5093 22.4649 18.2085C22.782 17.8915 23.4798 17.9268 23.7372 18.273ZM25.2586 28.62L26.5313 29.8738L25.9583 29.9865C25.6432 30.0484 24.811 30.2615 24.1089 30.4598C23.4069 30.6582 22.8224 30.8103 22.81 30.798C22.7806 30.7685 23.9166 27.3662 23.9557 27.3662C23.9723 27.3662 24.5586 27.9304 25.2586 28.62ZM33.5799 31.1186C33.9442 31.2198 34.0665 31.3888 33.9682 31.6553C33.88 31.894 33.7506 31.957 33.3445 31.9586C32.9863 31.96 32.1922 31.6002 31.6908 31.2093L31.4564 31.0266L32.347 31.0251C32.8369 31.0243 33.3917 31.0663 33.5799 31.1186ZM18.415 34.9834C18.191 35.3689 17.3387 36.3493 16.7499 36.8986C15.6832 37.894 15.041 38.1349 14.2906 37.8214L13.959 37.6829L14.1249 37.4019C14.2162 37.2474 14.4799 36.9853 14.7109 36.8194C15.1155 36.5288 18.2522 34.8734 18.4072 34.8686C18.449 34.8673 18.4524 34.919 18.415 34.9834Z" fill="#009C55"/>
</g>
<defs>
<clipPath id="clip0_158_610">
<rect width="48" height="48" fill="white"/>
</clipPath>
</defs>
</svg>
