<svg width="64" height="64" viewBox="0 0 64 64" fill="none" xmlns="http://www.w3.org/2000/svg">
<path fill-rule="evenodd" clip-rule="evenodd" d="M36.4938 2.13087C35.3876 2.53985 34.4283 3.46322 33.7333 4.78771C33.021 6.14538 32.5845 7.76043 31.9996 11.2037C31.8101 12.3194 31.6265 13.2777 31.5917 13.3332C31.557 13.3888 31.3001 13.466 31.0208 13.5047C30.5427 13.571 19.1091 17.8258 18.3042 18.2369C17.6978 18.5467 17.2989 18.8755 16.9887 19.3214C16.7299 19.6936 4.48137 48.7258 4.104 49.8618C3.90006 50.4753 4.00761 51.662 4.32574 52.3114C4.87524 53.4326 5.50771 53.8396 8.63055 55.0814C10.1448 55.6835 10.3531 55.7095 10.778 55.3491C11.0508 55.1176 11.0477 54.4496 10.7725 54.1778C10.6552 54.062 9.68039 53.609 8.60609 53.1712C7.53179 52.7334 6.52587 52.261 6.37048 52.1213C6.021 51.8072 5.76258 51.2273 5.76258 50.7572C5.76258 50.5543 8.45961 43.9761 12.045 35.4338C16.7434 24.2399 18.412 20.383 18.663 20.1364C18.9149 19.889 20.2846 19.3212 24.1622 17.8573C30.5249 15.4552 31.2781 15.1803 31.3377 15.2392C31.4396 15.3398 31.1249 17.2412 31.0009 17.2744C30.9284 17.2937 30.6531 17.3672 30.389 17.4378C29.727 17.6144 28.9333 18.3204 28.5988 19.03C27.4436 21.4802 30.0533 24.0634 32.5319 22.9234C33.1795 22.6256 33.8321 21.9722 34.0891 21.3646C34.327 20.8022 34.2923 19.6039 34.021 19.0136C33.8966 18.743 33.5879 18.3255 33.335 18.086L32.8751 17.6505L33.0181 16.547C33.0968 15.9401 33.1862 15.4189 33.2167 15.3888C33.3071 15.2997 34.263 16.0716 34.6121 16.5156C35.1152 17.1553 40.4251 28.601 40.4251 29.0458C40.4251 29.403 28.3762 58.3381 27.8093 59.3424C27.5377 59.8236 26.8038 60.2511 26.2497 60.2511C26.0679 60.2511 23.3365 59.1958 20.1796 57.906C17.0228 56.6162 14.3038 55.5609 14.1373 55.5609C13.4719 55.5609 13.0789 56.5632 13.5715 57.0036C13.6878 57.1076 16.3722 58.2546 19.5365 59.5525C25.805 62.1235 26.0565 62.1984 27.2663 61.851C28.0249 61.6331 28.8977 61.0166 29.2545 60.4463C29.3915 60.2273 30.0863 58.6574 30.7984 56.9577L32.0933 53.8673L32.5589 54.8607C35.1623 60.4157 35.343 60.7152 36.432 61.2807C36.9662 61.558 37.1745 61.5968 38.1103 61.5932C39.0536 61.5895 39.2691 61.5466 39.9503 61.2271C40.3747 61.0279 41.1225 60.6794 41.6122 60.4525C44.3432 59.187 49.3758 56.8605 53.6016 54.9098C57.7656 52.9878 58.4825 52.6189 58.9562 52.155C59.9286 51.2021 60.2573 49.7494 59.7907 48.4671C59.3637 47.2937 50.1217 27.9419 49.8932 27.7426C49.5846 27.4734 48.9443 27.4783 48.6937 27.7519C48.5856 27.8698 48.4972 28.1308 48.4972 28.3318C48.4972 28.5683 50.2169 32.3251 53.3642 38.9639C57.0844 46.8112 58.2307 49.3339 58.2293 49.6696C58.2262 50.3415 57.7945 50.9827 57.1222 51.3133C56.8061 51.4689 52.5594 53.4446 47.685 55.7041C37.8838 60.2471 37.9966 60.2053 37.1113 59.6266C36.7937 59.419 36.5472 59.1118 36.3229 58.6446C34.6904 55.2421 33.0653 51.7629 33.0653 51.6701C33.0653 51.6075 35.0735 46.7721 37.5281 40.9246C39.9826 35.0772 42.0502 30.0158 42.1227 29.6773C42.2194 29.2269 42.2195 28.8959 42.1235 28.4436C42.0513 28.1036 40.8844 25.4638 39.5305 22.5775C38.1766 19.6911 37.0925 17.306 37.1216 17.2773C37.1827 17.2169 43.3667 19.1277 43.728 19.3187C44.1137 19.5226 44.3542 19.943 45.5783 22.5542C46.2187 23.9202 46.8643 25.134 47.0281 25.2803C47.5233 25.7227 48.1151 25.5861 48.3735 24.9697C48.5072 24.6511 48.4735 24.5212 47.9852 23.4703C45.8356 18.843 45.4731 18.2533 44.4698 17.7511C44.1689 17.6006 42.2235 16.949 40.1466 16.3033C38.0697 15.6577 36.3428 15.102 36.3089 15.0686C36.2751 15.0352 36.406 14.7798 36.5999 14.5012C38.0588 12.4045 40.0343 8.66785 40.4053 7.30326C40.6821 6.28515 40.7393 5.00943 40.5399 4.30052C40.3339 3.56769 39.7095 2.78901 39.0258 2.41192C38.2808 2.00119 37.1763 1.87854 36.4938 2.13087ZM38.0976 3.91277C38.636 4.16509 38.8819 4.64102 38.8819 5.43061C38.8819 6.41366 38.6948 7.03663 37.9123 8.65965C37.1153 10.3128 36.44 11.5077 35.4159 13.0775L34.7139 14.1537L34.1205 13.8821C33.7941 13.7328 33.5027 13.5864 33.4728 13.5568C33.3814 13.4667 34.1286 9.29023 34.4867 7.89011C35.0102 5.84252 35.8559 4.37545 36.7689 3.93106C37.2611 3.69139 37.6151 3.68658 38.0976 3.91277ZM32.1065 19.3988C32.4144 19.6547 32.4717 19.7849 32.4717 20.2286C32.4717 20.886 31.9898 21.4402 31.4181 21.4402C30.2597 21.4402 29.662 20.2108 30.4446 19.4379C30.9089 18.9792 31.5826 18.9634 32.1065 19.3988ZM21.7881 29.1188C18.6854 29.8083 16.1445 31.7795 14.8337 34.514C14.1578 35.9238 13.9521 36.727 13.8728 38.2661C13.7309 41.016 14.6332 43.4592 16.5435 45.4972C19.3747 48.5179 24.0617 49.4333 27.8984 47.7149C29.8451 46.843 31.6696 45.1356 32.6326 43.2845C33.13 42.3284 32.5134 41.4467 31.5917 41.796C31.4889 41.8349 31.1506 42.2899 30.8402 42.8068C30.1386 43.9747 28.7856 45.2665 27.6421 45.86C24.174 47.6602 19.8114 46.8058 17.4512 43.864C15.3983 41.3051 15.0515 37.9798 16.5313 35.0416C17.1584 33.7966 18.7649 32.213 20.0143 31.6083C23.3514 29.9934 26.9986 30.5642 29.5664 33.1031C31.0045 34.5251 31.6333 35.8549 31.9271 38.0957C32.0462 39.0035 32.1389 39.3413 32.3013 39.4586C32.6478 39.7089 33.1622 39.6466 33.4994 39.3136C33.7915 39.0251 33.8004 38.9761 33.7186 38.1118C33.4786 35.5743 32.3827 33.2866 30.616 31.6351C29.3954 30.4941 28.347 29.891 26.6551 29.3566C25.3877 28.9564 23.0359 28.8415 21.7881 29.1188ZM24.6572 33.6413C24.513 33.7739 24.3316 34.1169 24.2541 34.4034C24.1167 34.9103 24.1 34.9245 23.6331 34.927C22.9984 34.9304 22.272 35.2682 21.8605 35.7511C21.4181 36.2704 21.2964 36.618 21.2964 37.3621C21.2963 38.5151 22.0853 39.3833 23.45 39.7318C24.2257 39.9298 24.5183 40.1489 24.5183 40.5318C24.5183 41.2009 24.108 41.2862 22.8352 40.8812C22.2625 40.699 22.0255 40.5664 22.0255 40.428C22.0255 40.0632 21.5581 39.6145 21.1781 39.6145C20.6535 39.6145 20.3879 39.8019 20.259 40.263C20.0402 41.0458 20.4569 41.8579 21.2567 42.2074L21.7738 42.4334L21.6016 43.0063C21.4068 43.6543 21.5058 44.0926 21.8932 44.2975C22.5192 44.6284 23.0741 44.2822 23.3387 43.3959C23.4823 42.9155 23.505 42.8975 23.9732 42.895C26.1182 42.8836 27.092 40.2555 25.5034 38.7657C25.315 38.589 24.769 38.3129 24.2902 38.152C23.2482 37.8019 23.0938 37.6892 23.0938 37.2786C23.0938 36.6254 23.3992 36.5605 24.7066 36.9357C25.4499 37.149 25.5867 37.2277 25.5867 37.4413C25.5867 38.1125 26.6261 38.4706 27.1299 37.973C27.4462 37.6605 27.4528 36.7549 27.142 36.2893C26.8768 35.8919 26.3285 35.5125 26.018 35.5115C25.8431 35.5108 25.8137 35.4549 25.8784 35.2468C25.9235 35.1017 25.9891 34.7409 26.0243 34.4449C26.0817 33.9608 26.0554 33.8813 25.762 33.6535C25.3527 33.3354 24.9939 33.3314 24.6572 33.6413ZM46.8212 35.746C46.7155 35.8069 46.5641 36.0118 46.4846 36.2011C46.3117 36.6134 45.9825 35.8439 49.4997 43.2494C50.9852 46.3771 52.3081 49.0285 52.4395 49.1413C52.9582 49.5871 53.839 49.1859 53.839 48.5038C53.839 48.0748 48.1856 36.2159 47.8265 35.8917C47.5194 35.6144 47.1435 35.5599 46.8212 35.746ZM42.7559 37.9815C42.551 38.1406 42.4431 38.3377 42.4431 38.5528C42.4431 39.0023 48.0809 50.8549 48.4557 51.1933C49.027 51.7092 49.8571 51.3674 49.8429 50.6221C49.8337 50.1448 44.208 38.2581 43.8425 37.9436C43.5255 37.671 43.1382 37.6845 42.7559 37.9815Z" fill="#009C55"/>
</svg>
