<svg width="64" height="64" viewBox="0 0 64 64" fill="none" xmlns="http://www.w3.org/2000/svg">
<path fill-rule="evenodd" clip-rule="evenodd" d="M30.9786 1.15442C30.7543 1.23795 29.7764 1.85899 28.8057 2.5346C27.835 3.2102 26.269 4.23092 25.3257 4.80295C23.4244 5.95581 23.1429 6.27273 23.4223 6.94549C23.6043 7.38383 23.8995 7.5774 24.3858 7.5774C24.8067 7.5774 27.9107 5.72359 30.0587 4.18928C31.0499 3.48122 31.7698 3.05491 31.9763 3.05375C32.1629 3.05258 32.6423 3.29503 33.0779 3.61091C40.0578 8.67233 47.9186 12.1116 56.3072 13.7746C57.8226 14.075 58.1164 14.1991 58.2706 14.604C58.3308 14.762 58.4851 15.7621 58.6134 16.8267C58.9006 19.2084 58.9446 25.3397 58.6908 27.6193C58.1681 32.3148 57.1643 36.3972 55.6123 40.139C55.2974 40.8981 55.0395 41.6983 55.0391 41.917C55.0377 42.7675 56.1219 43.1924 56.7073 42.5707C57.2604 41.9832 58.8353 37.6939 59.562 34.7956C60.9835 29.1262 61.3629 21.7246 60.548 15.5578C60.249 13.2946 59.4899 12.3108 57.7802 11.9703C48.928 10.2077 41.989 7.32383 35.2111 2.59058C34.2576 1.92481 33.2537 1.29071 32.9803 1.18145C32.4006 0.950124 31.5584 0.938745 30.9786 1.15442ZM17.7936 3.34843C17.6209 3.52066 17.4586 3.88658 17.4062 4.22122C17.1925 5.58782 16.6147 7.71109 16.2258 8.55971C15.2987 10.5821 14.1093 11.2967 10.3268 12.104C8.43767 12.5073 8.12352 12.6914 8.12352 13.396C8.12352 14.1012 8.43715 14.2848 10.3268 14.6854C14.1065 15.4866 15.2906 16.191 16.2021 18.1802C16.6111 19.0728 17.1883 21.1777 17.4062 22.5708C17.5158 23.2715 17.9427 23.7402 18.4712 23.7402C19.1777 23.7402 19.3844 23.4211 19.7277 21.8003C20.8322 16.5856 21.6884 15.7313 26.915 14.6294C28.5289 14.2891 28.8594 14.0795 28.8594 13.396C28.8594 12.7125 28.5289 12.5029 26.915 12.1626C21.7036 11.0639 20.8289 10.1912 19.7277 4.99173C19.4894 3.8668 19.3445 3.45006 19.1322 3.27847C18.7394 2.96117 18.151 2.99194 17.7936 3.34843ZM30.9183 8.43131C30.1326 8.75689 29.9276 9.55999 30.4874 10.1186C30.788 10.4184 30.884 10.4418 31.4995 10.365C32.1756 10.2809 32.1898 10.2864 33.9087 11.3242C37.1943 13.3076 41.5719 15.4648 42.311 15.4648C43.0836 15.4648 43.5363 14.4059 43.0181 13.8107C42.8934 13.6674 42.2373 13.3072 41.5601 13.0102C39.7864 12.2324 36.904 10.7214 35.0211 9.58249C34.1253 9.04071 33.1907 8.51329 32.9444 8.41062C32.375 8.17335 31.5198 8.18201 30.9183 8.43131ZM18.7901 9.38686C19.2952 10.806 21.0875 12.5941 22.5098 13.0981C22.8658 13.2242 23.157 13.3583 23.157 13.396C23.157 13.4338 22.8658 13.5679 22.5098 13.6939C21.0875 14.1979 19.2952 15.9861 18.7901 17.4052C18.6637 17.7604 18.5293 18.0509 18.4915 18.0509C18.4536 18.0509 18.3192 17.7604 18.1929 17.4052C17.6877 15.9861 15.8955 14.1979 14.4731 13.6939C14.1171 13.5679 13.8259 13.4338 13.8259 13.396C13.8259 13.3583 14.1171 13.2242 14.4731 13.0981C15.8955 12.5941 17.6877 10.806 18.1929 9.38686C18.3192 9.03166 18.4536 8.74112 18.4915 8.74112C18.5293 8.74112 18.6637 9.03166 18.7901 9.38686ZM4.00305 14.5631C3.83949 14.6301 3.62734 14.875 3.53156 15.1072C2.98427 16.4347 2.80892 24.5835 3.24696 28.3305C4.0554 35.245 6.16541 41.6617 9.21643 46.4838C9.81985 47.4374 10.4926 47.625 11.1075 47.0114C11.5208 46.5991 11.4137 46.1688 10.5043 44.5884C6.38326 37.4277 4.41115 27.9724 5.14455 18.8914C5.45546 15.0422 5.45404 15.1649 5.19134 14.8562C4.90156 14.5158 4.41271 14.3953 4.00305 14.5631ZM46.1109 15.4325C45.9607 15.557 45.8037 15.8343 45.7624 16.0488C45.6411 16.6767 46.0559 17.0682 47.2706 17.4718C48.1775 17.773 48.3632 17.7972 48.6999 17.6581C49.151 17.4718 49.3361 17.1812 49.3361 16.6596C49.3361 16.1538 48.9295 15.8163 47.9177 15.482C46.9034 15.147 46.4699 15.1351 46.1109 15.4325ZM52.5761 17.3004C51.8589 17.5651 51.7317 18.3288 52.2845 19.0511C52.6326 19.5059 52.6419 19.5635 52.6844 21.5315C52.7781 25.8605 52.1371 30.3438 50.8226 34.5551C50.5752 35.3473 50.3729 36.1372 50.3729 36.3104C50.3729 37.0328 51.6094 37.502 52.0884 36.9614C52.5151 36.4795 53.5328 32.905 54.0484 30.076C54.5768 27.1773 54.7069 25.6526 54.7108 22.3179C54.7148 18.8334 54.6857 18.6719 53.8881 17.7657C53.4499 17.2677 53.0494 17.1257 52.5761 17.3004ZM9.91925 18.1176C9.73081 18.2198 9.50349 18.4939 9.41407 18.7266C9.17781 19.3417 9.10796 22.6481 9.27981 25.0749C10.1414 37.2368 15.087 46.3619 23.9821 52.2011C26.5782 53.9055 30.7832 55.8072 31.9553 55.8072C32.8477 55.8072 37.081 54.0517 37.4925 53.5111C37.9196 52.9498 37.4592 51.9282 36.7792 51.9282C36.5835 51.9282 35.7858 52.2129 35.0067 52.5607C34.2274 52.9087 33.2046 53.3273 32.7339 53.4912L31.878 53.7891L30.4659 53.2339C28.6712 52.5281 26.447 51.3736 24.9267 50.3584C17.2053 45.2029 12.6989 37.2991 11.4821 26.7788C11.2926 25.1403 11.2441 19.8982 11.4118 19.1882C11.5145 18.754 11.4882 18.6727 11.1302 18.3155C10.6952 17.8814 10.4339 17.8387 9.91925 18.1176ZM42.9708 21.8498C42.2802 22.096 41.8923 22.411 40.4585 23.8901C39.7457 24.6254 37.3728 27.0454 35.1851 29.2679C31.3586 33.1552 31.1892 33.3086 30.7184 33.3086C30.258 33.3086 30.1006 33.1802 28.0618 31.1428C26.7811 29.8628 25.6926 28.8858 25.4007 28.754C24.7817 28.4749 23.4415 28.4564 22.8131 28.7184C22.2193 28.9658 20.2378 30.8846 19.8753 31.563C19.4857 32.2923 19.4859 33.808 19.8756 34.537C20.0276 34.8214 22.1079 37.0385 24.4985 39.4638C29.3657 44.4017 29.5227 44.5217 30.9377 44.3937C31.3375 44.3576 31.8959 44.2102 32.1788 44.0663C32.9024 43.6979 47.7354 28.5884 48.1697 27.7772C48.615 26.9455 48.6198 25.6179 48.1804 24.7746C47.7051 23.8619 45.892 22.1463 45.1284 21.8868C44.379 21.6321 43.6182 21.619 42.9708 21.8498ZM45.4081 24.6805C46.2337 25.4858 46.3825 25.6989 46.4454 26.1661C46.5305 26.7993 46.8209 26.4666 41.1112 32.2742C33.6442 39.8692 31.2404 42.2459 30.9523 42.318C30.7847 42.36 30.4817 42.3139 30.2788 42.2155C29.7317 41.9501 21.7575 33.7806 21.6576 33.3831C21.5197 32.8351 21.6944 32.4582 22.4775 31.6141C23.3967 30.6234 23.886 30.3855 24.4854 30.6379C24.7171 30.7355 25.7814 31.7139 26.8506 32.8123C28.0104 34.0036 29.0038 34.9096 29.313 35.0581C30.0018 35.3888 31.4625 35.3985 32.0994 35.0768C32.3489 34.9507 35.0316 32.347 38.0609 29.2908C44.5219 22.7724 43.8706 23.181 45.4081 24.6805ZM49.9913 40.5176C49.779 40.6892 49.6342 41.1059 49.3958 42.2309C48.2946 47.4304 47.4199 48.303 42.2085 49.4017C40.5946 49.742 40.2641 49.9516 40.2641 50.6351C40.2641 51.3397 40.5783 51.5238 42.4674 51.9271C47.4273 52.9857 48.3043 53.8859 49.3958 59.0394C49.7369 60.6496 49.947 60.9793 50.6321 60.9793C51.3415 60.9793 51.5258 60.6653 51.923 58.7799C52.7114 55.0372 53.4343 53.8283 55.4272 52.9193C56.3219 52.5112 58.4316 51.9353 59.8279 51.7179C60.5302 51.6085 61 51.1826 61 50.6553C61 49.9505 60.6802 49.7442 59.0556 49.4017C53.8722 48.3089 52.9795 47.4436 51.9244 42.4892C51.6367 41.1384 51.4894 40.6927 51.2724 40.5173C50.9138 40.2276 50.3502 40.2277 49.9913 40.5176ZM50.9307 46.626C51.4358 48.0451 53.2281 49.8332 54.6504 50.3372C55.0064 50.4633 55.2976 50.5974 55.2976 50.6351C55.2976 50.6729 55.0064 50.807 54.6504 50.933C53.2281 51.4371 51.4358 53.2252 50.9307 54.6443C50.8043 54.9995 50.6699 55.29 50.6321 55.29C50.5942 55.29 50.4598 54.9995 50.3335 54.6443C49.8283 53.2252 48.0361 51.4371 46.6137 50.933C46.2577 50.807 45.9665 50.6729 45.9665 50.6351C45.9665 50.5974 46.2577 50.4633 46.6137 50.3372C47.517 50.0171 48.7684 49.0357 49.492 48.0796C49.8284 47.6353 50.207 46.9812 50.3335 46.626C50.4598 46.2708 50.5942 45.9802 50.6321 45.9802C50.6699 45.9802 50.8043 46.2708 50.9307 46.626ZM12.3144 49.1452C11.9783 49.38 11.8425 49.8684 11.9991 50.279C12.0636 50.4487 12.4195 50.9182 12.7897 51.3225C13.3189 51.9 13.5454 52.0575 13.8474 52.0575C14.3745 52.0575 14.6697 51.8757 14.8508 51.4397C15.059 50.938 14.904 50.5839 14.0844 49.6892C13.3562 48.8943 12.8819 48.7485 12.3144 49.1452ZM16.2893 53.4141C15.9455 53.7791 15.8901 54.3839 16.1694 54.7241C16.5476 55.1846 19.0039 57.056 20.6374 58.1278C23.5033 60.0085 27.4093 61.8343 30.4794 62.7282C31.9112 63.1452 32.3358 63.1119 34.3994 62.4217C37.5359 61.3724 40.8524 59.7603 43.4611 58.0166C44.7072 57.1837 44.7362 57.1529 44.7748 56.6225C44.8046 56.2121 44.7494 56.0153 44.548 55.8144C44.0751 55.3425 43.5863 55.4672 42.0893 56.4407C39.5145 58.1152 36.485 59.5586 33.4863 60.5396L31.9572 61.0397L29.8849 60.3451C26.319 59.1498 22.4427 57.0797 19.5226 54.811C17.3735 53.1413 17.2991 53.0919 16.9396 53.0919C16.7373 53.0919 16.4661 53.2264 16.2893 53.4141Z" fill="#009C55"/>
</svg>
