<svg width="64" height="64" viewBox="0 0 64 64" fill="none" xmlns="http://www.w3.org/2000/svg">
<path fill-rule="evenodd" clip-rule="evenodd" d="M27.2013 10.1846C24.4497 10.7369 22.2511 12.3509 20.9527 14.772C19.8598 16.81 19.7127 20.8585 20.6376 23.4437C20.921 24.2361 21.0092 24.6975 21.0117 25.3999C21.0164 26.7258 21.2226 28.5223 21.465 29.3492C21.9629 31.0474 23.0942 32.8731 24.3716 34.0394L25.0077 34.6203V36.1495V37.6788L24.0704 38.6441C23.5549 39.175 23.1331 39.6853 23.1331 39.7779C23.1331 40.013 23.0037 40.0667 19.8938 41.1217C18.3717 41.638 16.8938 42.1716 16.6095 42.3074C16.1132 42.5445 16.0751 42.5465 15.6495 42.3564L15.2064 42.1585L16.0766 41.7323C17.0968 41.2327 18.6976 39.8336 18.8308 39.3252C18.8884 39.1051 18.8289 38.7197 18.6592 38.2133C18.2701 37.0531 18.1503 36.167 18.0098 33.4138C17.8772 30.8164 17.7229 29.9085 17.2145 28.7366C16.3002 26.6295 14.1815 24.876 11.8698 24.3136C10.9166 24.0816 9.21156 24.0583 8.26099 24.2643C5.88021 24.7802 3.73589 26.5083 2.75383 28.7024C2.22819 29.8767 2.0491 30.933 1.89638 33.7578C1.76465 36.1929 1.53732 37.7173 1.18927 38.4973C1.07129 38.7617 1.0298 39.0602 1.08079 39.2777C1.20564 39.8099 2.66147 41.1225 3.74589 41.6807L4.66733 42.1548L3.1745 42.8676C1.4957 43.6693 0.876202 44.1689 0.401671 45.1046L0.0751102 45.7484L0.0374926 49.581L0 53.4136L0.313063 53.7068C0.71011 54.0787 1.18739 54.0809 1.58044 53.7127L1.88725 53.4254V49.8579C1.88725 47.6149 1.93674 46.168 2.0206 45.9608C2.25381 45.3842 2.65848 45.0995 4.42488 44.269L6.15016 43.458L6.92438 44.1166C7.84895 44.9031 8.35235 45.1613 9.2648 45.3169C10.6424 45.5519 11.7376 45.1944 13.0043 44.0959L13.7679 43.4338L14.2691 43.6454C14.6392 43.8018 14.7482 43.9054 14.6865 44.042C14.0404 45.4696 14.0812 45.1428 14.035 49.244C13.9885 53.3559 14.0207 53.6263 14.5866 53.8677C15.0189 54.0522 15.1786 54.0349 15.5477 53.763L15.8694 53.526L15.9082 49.5786L15.947 45.6313L16.3108 45.0164C16.5109 44.6781 16.867 44.2639 17.1023 44.0959C17.3375 43.9278 18.889 43.3266 20.5502 42.7597C22.2114 42.1928 23.6641 41.6945 23.7784 41.6525C23.9413 41.5926 24.2856 41.9924 25.3694 43.5009C26.1301 44.5596 26.9066 45.5205 27.095 45.636C27.5706 45.9278 28.4996 45.9948 28.9549 45.7701C29.1554 45.6712 29.6833 45.244 30.1281 44.8208C30.5728 44.3975 30.9806 44.0512 31.0341 44.0512C31.0877 44.0512 31.1315 46.1805 31.1315 48.783V53.5149L31.4608 53.7574C31.6419 53.8908 31.8642 54 31.9548 54C32.3244 54 32.7515 53.7128 32.8749 53.3812C32.9578 53.1587 33.0061 51.3664 33.0061 48.5196V44.0106L33.9809 44.8991C34.7135 45.5667 35.0706 45.8077 35.4181 45.8687C35.9815 45.9677 36.6053 45.8688 36.9838 45.6205C37.1392 45.5186 37.8863 44.5666 38.644 43.5048C39.7324 41.9799 40.066 41.5906 40.2321 41.6517C40.3475 41.6942 41.8174 42.1983 43.4983 42.7719C46.8296 43.9088 47.2448 44.1315 47.7527 45.055C48.0643 45.6216 48.0659 45.6414 48.1281 49.5885L48.1906 53.5529L48.4857 53.7764C48.8897 54.0826 49.3286 54.0568 49.7047 53.7045L50.0203 53.409L49.9776 49.4031C49.937 45.5875 49.9219 45.3668 49.6582 44.7573C49.5059 44.4054 49.212 43.8967 49.0052 43.6269L48.6292 43.1365L49.1751 42.9623L49.7209 42.7881L50.9242 43.9192L52.1273 45.0503V49.2378V53.4254L52.4342 53.7127C52.7743 54.0314 52.9691 54.0624 53.42 53.8701C53.9739 53.6337 54.002 53.4035 54.002 49.1055V45.0414L55.1804 43.9425L56.3588 42.8434L58.461 43.4008C61.027 44.0812 61.4702 44.2886 61.8442 44.9831C62.1192 45.494 62.1254 45.5914 62.1254 49.4653V53.4254L62.4322 53.7127C62.8231 54.0789 63.3023 54.0789 63.6932 53.7127L64 53.4254V49.4033C64 44.9365 63.9524 44.5905 63.2115 43.676C62.573 42.8877 61.8404 42.5031 60.0524 42.0174C59.1648 41.7763 58.1293 41.4902 57.7512 41.3813L57.0639 41.1836L57.028 40.4813L56.9921 39.7791L57.9032 38.9012C58.4044 38.4184 58.97 37.7508 59.1603 37.4177C59.6862 36.4969 60.0008 35.1779 60.0008 33.8934C60.0008 32.8813 60.0413 32.6931 60.4691 31.7175L60.9374 30.6496L60.9788 27.7993C61.0262 24.552 60.9858 24.346 60.2641 24.1435C59.9533 24.0563 58.2309 24.0308 54.8738 24.0638C50.2385 24.1095 49.8972 24.1273 49.2277 24.3588C46.5478 25.2857 45.0145 27.3935 45.155 29.9576C45.1981 30.7466 45.2836 31.0559 45.6676 31.8132C46.0992 32.6643 46.1287 32.7941 46.1304 33.8512C46.1339 35.9686 46.7891 37.5185 48.2842 38.9461C49.1093 39.7338 49.1279 39.7651 49.1279 40.3655C49.1279 40.764 49.0632 41.0297 48.9435 41.1227C48.842 41.2016 48.2349 41.4099 47.5942 41.5854L46.4295 41.9047L45.1855 41.4768C44.5012 41.2414 43.2827 40.8241 42.4776 40.5491C41.3457 40.1626 40.9949 39.9922 40.9303 39.7972C40.8844 39.6585 40.4324 39.1159 39.9259 38.5915L39.0049 37.638V36.2051V34.7721L39.9254 33.87C42.0262 31.8106 42.8568 29.7466 42.964 26.3189C43.0098 24.8572 43.0749 24.3178 43.2611 23.861C43.8956 22.3044 43.9168 22.0783 43.9708 16.3268C44.0252 10.5427 44.0102 10.3722 43.4272 10.1235C43.2071 10.0295 40.9391 9.99402 35.5935 10.0008C29.4313 10.0085 27.9125 10.0419 27.2013 10.1846ZM42.1268 16.1653C42.1242 20.9123 42.0555 21.73 41.5503 23.0245C41.2637 23.7589 41.2126 24.1179 41.1315 25.9678C41.0042 28.8713 40.6547 30.0882 39.51 31.6149C37.7534 33.9575 35.0607 35.2864 32.0597 35.2919C29.4854 35.2966 27.3399 34.4377 25.5927 32.7031C23.6373 30.7618 22.8975 28.6994 22.8825 25.1485C22.8789 24.2669 22.8205 23.8603 22.6464 23.5012C22.1298 22.436 21.9659 21.4801 21.9557 19.4718C21.9493 18.2132 22.0047 17.3163 22.1149 16.8968C22.747 14.4911 24.7241 12.6113 27.2825 11.9835C28.1263 11.7765 28.7158 11.7593 35.1619 11.7533L42.1293 11.7469L42.1268 16.1653ZM28.8194 18.0187C25.1388 18.3537 24.936 18.4053 24.4186 19.1375C24.1576 19.5068 24.0905 19.7701 24.0383 20.6278C23.9353 22.3189 24.202 22.9832 24.9838 22.9832C25.6974 22.9832 25.8138 22.7771 25.8825 21.3916L25.945 20.1316L26.3057 20.0416C27.2076 19.8168 30.6352 19.6864 32.2204 19.8166C34.9675 20.0423 36.5438 20.51 37.9903 21.5282C38.4042 21.8196 38.8637 22.0468 39.0394 22.0468C39.5271 22.0468 39.9214 21.6789 39.9214 21.2241C39.9214 20.9049 39.8073 20.7347 39.3 20.2979C38.1364 19.2958 36.2296 18.5496 34.0492 18.2431C32.816 18.0698 29.7191 17.9369 28.8194 18.0187ZM11.8539 26.155C13.285 26.6126 14.5643 27.6852 15.2604 29.011C15.7513 29.9458 15.9635 30.7717 16.0737 32.1761L16.1652 33.3416L15.3931 32.5559C13.7633 30.8973 11.1113 29.8274 8.46058 29.759L7.60113 29.7369L6.49384 30.7907C5.57415 31.6662 5.38656 31.907 5.38656 32.2127C5.38656 32.6961 5.77049 33.049 6.29626 33.049C6.63469 33.049 6.84615 32.9166 7.51114 32.2882C8.42384 31.4257 8.53232 31.401 10.0731 31.7029C11.9102 32.0629 13.8899 33.27 14.6277 34.48C14.9379 34.9887 14.9654 35.1125 14.8628 35.5402C14.4564 37.2341 12.624 38.7572 10.6886 39.01C7.8517 39.3805 5.40731 37.6146 4.97839 34.8844C4.84017 34.0048 4.53486 33.5172 4.12244 33.5172C4.00096 33.5172 3.87723 33.4777 3.84749 33.4294C3.73314 33.2437 4.01533 30.6408 4.21129 30.0747C5.33232 26.8348 8.65342 25.1315 11.8539 26.155ZM59.0995 28.1039L59.0469 30.4155L58.5866 31.3708C58.1604 32.255 58.1262 32.4085 58.1262 33.4324C58.1262 34.0408 58.0697 34.8224 58.0006 35.1692C57.5975 37.1915 55.9061 38.716 53.7478 39.0022C51.8658 39.2518 50.1374 38.5427 48.9992 37.054C48.28 36.1135 48.0032 35.1716 48.0032 33.6659C48.0032 32.4953 47.9804 32.3879 47.5404 31.4837C46.9379 30.2454 46.8559 29.3225 47.2589 28.3182C47.7513 27.0916 48.9957 26.128 50.3692 25.9103C50.6831 25.8605 52.7877 25.8135 55.046 25.806L59.1521 25.7922L59.0995 28.1039ZM49.6426 28.9048C49.0296 29.1462 48.9482 30.079 49.5154 30.3633C49.6581 30.4348 50.4588 30.5393 51.2948 30.5956C52.9397 30.7064 54.3702 30.9353 55.2362 31.2265C56.0392 31.4965 56.4387 31.4634 56.7423 31.102C57.2901 30.4499 56.8843 29.9052 55.5343 29.48C53.9235 28.9726 50.3549 28.6243 49.6426 28.9048ZM27.7733 36.2628C30.4226 37.3982 33.7182 37.3163 36.9177 36.0356C37.1234 35.9534 37.1393 36.0137 37.1052 36.7504L37.0678 37.5552L34.5374 39.172L32.0072 40.7886L29.4759 39.1619L26.9448 37.5351L26.9078 36.7551C26.8876 36.3261 26.9229 35.9751 26.9864 35.9751C27.05 35.9751 27.4041 36.1046 27.7733 36.2628ZM5.23134 39.0384C5.98732 39.7183 6.02206 39.774 5.98632 40.2488L5.94895 40.7465L5.05425 40.337C4.56223 40.1118 3.90323 39.7098 3.59004 39.4436L3.02053 38.9598L3.29198 37.9498L3.56342 36.9397L4.00109 37.6327C4.24191 38.0139 4.79555 38.6465 5.23134 39.0384ZM16.6477 37.9799L16.8997 38.9598L16.3168 39.4579C15.9961 39.7318 15.3319 40.1384 14.8406 40.3614L13.9474 40.7668L13.9084 40.2924C13.8715 39.8426 13.914 39.7775 14.7271 39.0377C15.2227 38.5867 15.7389 37.9764 15.9502 37.5914C16.1513 37.225 16.3339 36.9421 16.3558 36.9627C16.3778 36.9832 16.5091 37.441 16.6477 37.9799ZM28.9267 40.9439L30.5337 41.9731L29.3731 43.0646C28.7346 43.665 28.1764 44.1354 28.1326 44.11C28.0887 44.0846 27.4143 43.1638 26.634 42.0638L25.2153 40.0637L25.6947 39.6039L26.1741 39.144L26.747 39.5294C27.0619 39.7414 28.0428 40.3779 28.9267 40.9439ZM38.7497 40.1035C38.7539 40.1741 36.1305 43.9383 35.9207 44.163C35.8933 44.1922 35.3322 43.7118 34.6738 43.0951L33.4767 41.9739L35.6981 40.5564L37.9194 39.139L38.3321 39.576C38.5589 39.8164 38.7469 40.0538 38.7497 40.1035ZM9.17282 40.7706C9.92479 40.859 11.3668 40.7676 11.854 40.6007C11.9634 40.5633 12.0103 40.6957 12.0103 41.0418C12.0103 41.3138 12.0659 41.718 12.1339 41.9401C12.2446 42.3016 12.2217 42.3792 11.9151 42.6815C10.708 43.8722 9.66047 43.9447 8.34285 42.9289C7.71598 42.4455 7.66099 42.3666 7.76784 42.1032C7.83283 41.9431 7.88607 41.5202 7.88607 41.1635C7.88607 40.597 7.91344 40.5246 8.10203 40.5924C8.22075 40.6351 8.70266 40.7153 9.17282 40.7706ZM52.1898 40.774C52.8653 40.877 54.4058 40.774 54.912 40.592C55.0923 40.5272 55.1268 40.5877 55.1268 40.9688C55.1268 41.3829 55.0334 41.5099 54.0636 42.4134L53.0003 43.4041L51.9535 42.4108C50.9495 41.4583 50.9092 41.3996 50.9687 40.9752C51.0192 40.6151 51.0726 40.5449 51.2545 40.599C51.3776 40.6356 51.7984 40.7143 52.1898 40.774ZM58.3852 46.9346C58.138 47.2289 58.1262 47.3842 58.1262 50.3342V53.4254L58.433 53.7127C58.6017 53.8707 58.8854 54 59.0635 54C59.2416 54 59.5253 53.8707 59.694 53.7127L60.0008 53.4254V50.3131V47.2008L59.694 46.9135C59.2766 46.5225 58.7238 46.5314 58.3852 46.9346ZM4.27091 48.105C4.02708 48.3952 4.01183 48.5614 4.01183 50.9194C4.01183 53.424 4.01196 53.4255 4.31865 53.7127C4.48737 53.8707 4.77106 54 4.94915 54C5.12724 54 5.41093 53.8707 5.57965 53.7127L5.88646 53.4254V50.8655C5.88646 48.341 5.88246 48.3022 5.59727 48.0511C5.18798 47.6911 4.59847 47.7149 4.27091 48.105ZM20.4756 48.6452C20.1022 48.9108 20.0087 49.4302 20.0087 51.2396C20.0087 53.1964 20.1113 53.6655 20.5832 53.8668C21.0194 54.0529 21.1769 54.0352 21.554 53.7574L21.8833 53.5149V51.2614C21.8833 49.0572 21.8769 49.0023 21.5941 48.7534C21.2717 48.4698 20.788 48.4229 20.4756 48.6452ZM42.401 48.7697C42.1421 49.0281 42.1293 49.1432 42.1293 51.2331C42.1293 53.4047 42.1322 53.4281 42.4361 53.7127C42.7772 54.0322 42.9709 54.0625 43.4272 53.8677C43.95 53.6448 44.0237 53.2653 43.981 51.0204C43.9426 49.0027 43.9333 48.9398 43.6464 48.7225C43.2467 48.4197 42.7327 48.4392 42.401 48.7697Z" fill="#009C55"/>
</svg>
