<svg width="64" height="64" viewBox="0 0 64 64" fill="none" xmlns="http://www.w3.org/2000/svg">
<path fill-rule="evenodd" clip-rule="evenodd" d="M31.4731 2.18213C30.9374 2.47997 30.8529 3.0749 30.8976 6.23454L30.9375 9.04857L31.2882 9.3573C31.7364 9.75195 32.2636 9.75195 32.7118 9.3573L33.0625 9.04857L33.1024 6.23454C33.1478 3.02982 33.0656 2.47485 32.5016 2.17611C32.0558 1.93986 31.9073 1.94075 31.4731 2.18213ZM19.8654 5.81479C19.6644 6.02069 19.5 6.31099 19.5 6.45991C19.5 6.60896 19.7887 7.46331 20.1418 8.35851C20.8866 10.2474 21.2895 10.7637 21.9221 10.6395C22.3836 10.5488 22.8764 10.0233 22.8715 9.62698C22.8654 9.12886 21.5252 6.0344 21.1833 5.72861C20.7434 5.33524 20.3056 5.3638 19.8654 5.81479ZM42.767 5.79264C42.284 6.29472 41.0871 9.32632 41.1874 9.79383C41.2841 10.2448 41.5955 10.5373 42.086 10.6378C42.7109 10.7657 43.1199 10.2415 43.8602 8.36312C44.2121 7.47048 44.5 6.61613 44.5 6.46452C44.5 6.07473 43.842 5.4405 43.4375 5.4405C43.2411 5.4405 42.9676 5.58417 42.767 5.79264ZM9.45438 11.5963C9.19313 11.8067 9.125 11.9715 9.125 12.3925C9.125 12.909 9.183 12.9828 11.2852 15.1362C13.1714 17.0685 13.4956 17.3492 13.8407 17.3492C14.4268 17.3492 14.895 16.8817 14.9116 16.28C14.9245 15.8153 14.8296 15.6967 12.7366 13.5625C10.3529 11.1317 10.1683 11.0211 9.45438 11.5963ZM51.2142 13.6118C48.7601 16.1399 48.6845 16.2774 49.3654 16.9749C49.6199 17.2356 49.8545 17.3492 50.1385 17.3492C50.4992 17.3492 50.7955 17.0954 52.7054 15.1504C54.9923 12.8216 55.1686 12.5484 54.825 11.8679C54.6095 11.4409 54.4054 11.3308 53.829 11.3308C53.4761 11.3308 53.1649 11.6023 51.2142 13.6118ZM29.1381 13.1471C26.977 13.4242 24.0648 14.3937 22 15.5232C20.0249 16.6035 18.7353 17.5792 17.0806 19.2443C13.3573 22.9916 11.2028 27.6991 10.7463 33.0848C10.4599 36.4629 11.1249 40.5105 12.4506 43.4598C12.6851 43.9815 12.8495 44.4366 12.8159 44.471C12.5894 44.703 6.71675 45.4619 4.125 45.594C2.17475 45.6934 1.72812 45.8059 1.32162 46.3009C0.902875 46.8105 0.809875 47.2255 0.982125 47.8145C1.09962 48.2161 1.52387 48.6362 3.6235 50.4298C4.99938 51.6052 6.125 52.6201 6.125 52.6853C6.125 52.7504 5.53038 54.435 4.80363 56.4289C3.36263 60.3823 3.28237 60.8163 3.87287 61.4602C4.54238 62.1902 4.9495 62.1799 9.25863 61.3227C14.4688 60.2863 19.7349 58.5938 24.565 56.4034L25.9713 55.7657L27.0114 56.0309C30.2049 56.8452 33.8614 56.842 37.0558 56.0222L38.0796 55.7594L39.1944 56.287C44.5289 58.8116 51.9234 61.0232 58.0224 61.9181C59.2725 62.1015 59.6739 62.0005 60.19 61.3721C60.7051 60.7449 60.6203 60.3244 59.1875 56.4045C58.4656 54.4296 57.875 52.757 57.875 52.6876C57.875 52.6182 58.9991 51.6065 60.373 50.4393C62.5011 48.6312 62.8921 48.2445 63.0144 47.8266C63.2019 47.1854 63.078 46.727 62.5789 46.2157C62.115 45.7405 62.0741 45.7326 59.0625 45.5276C56.3001 45.3395 51.3838 44.6755 51.1758 44.4624C51.1386 44.4244 51.2461 44.1139 51.4149 43.7722C51.8729 42.8447 52.5754 40.6372 52.8961 39.1177C53.1464 37.9317 53.1795 37.4184 53.1774 34.764C53.1751 32.1353 53.1399 31.5947 52.899 30.4878C51.9719 26.2283 50.1515 22.7049 47.3125 19.6746C43.2154 15.3015 37.7786 12.9576 31.859 13.012C30.8709 13.0211 29.6465 13.0819 29.1381 13.1471ZM35.848 15.5377C38.4216 16.1071 40.9392 17.216 43.0154 18.6946C44.4792 19.7372 46.8919 22.2515 47.8615 23.7449C53.0386 31.7184 52.0911 42.0067 45.5674 48.6575C44.8075 49.4322 43.7361 50.3921 43.1866 50.7904C40.9801 52.3902 38.2861 53.5726 35.591 54.1241C33.5995 54.5316 30.2731 54.5268 28.375 54.1137C23.1071 52.9674 18.8485 50.039 15.9715 45.5845C12.7358 40.575 11.9414 34.2191 13.8349 28.4896C15.5705 23.2375 19.5651 18.835 24.5194 16.7144C25.9894 16.0852 27.5898 15.6105 29.0625 15.3668C30.6669 15.1014 34.2887 15.1926 35.848 15.5377ZM31.5 17.5071C31.1453 17.6938 31.1654 17.6552 28.5749 23.1115L26.6597 27.145L22.0486 27.8305C16.4973 28.6556 16.5075 28.6536 16.2279 29.0258C15.6861 29.7471 15.716 29.7888 19.6933 33.8715L23.3865 37.6626L22.5683 42.5898C22.1182 45.2999 21.75 47.7043 21.75 47.9331C21.75 48.4717 22.2266 48.9776 22.7341 48.9776C22.9755 48.9776 24.6565 48.1301 27.5574 46.5457L32.0101 44.1138L36.4556 46.5457C39.3315 48.1189 41.0311 48.9776 41.2689 48.9776C41.772 48.9776 42.25 48.47 42.25 47.9357C42.25 47.7084 41.8814 45.3044 41.4308 42.5935L40.6115 37.6646L44.3058 33.8725C46.9675 31.1402 48 29.9994 48 29.7908C48 29.3216 47.6465 28.756 47.2971 28.6663C47.1193 28.6206 44.8018 28.256 42.1473 27.8564L37.3209 27.1295L35.1211 22.4918C33.9114 19.941 32.8399 17.7706 32.7402 17.6685C32.4761 17.398 31.8598 17.3177 31.5 17.5071ZM33.9375 24.9833C35.5745 28.423 35.8499 28.9249 36.1829 29.0754C36.4804 29.2098 44.0471 30.4169 44.5592 30.4116C44.6263 30.4108 43.2621 31.8679 41.528 33.6494C39.7939 35.4308 38.3741 36.9435 38.373 37.0107C38.3719 37.0779 38.688 39.0515 39.0755 41.3965C39.463 43.7415 39.7485 45.6926 39.7098 45.7322C39.671 45.7719 37.9877 44.9049 35.9691 43.8055C33.9505 42.7062 32.167 41.8068 32.0059 41.8068C31.8449 41.8068 30.0596 42.7073 28.0389 43.8077C26.0181 44.9082 24.3321 45.7752 24.2924 45.7344C24.2525 45.6935 24.5361 43.7635 24.9225 41.4453C25.3089 39.1271 25.625 37.1535 25.625 37.0593C25.625 36.9653 24.2061 35.4308 22.472 33.6494C20.7379 31.8679 19.3738 30.4108 19.4408 30.4116C19.9529 30.4169 27.5196 29.2098 27.8171 29.0754C28.1501 28.9249 28.4255 28.423 30.0625 24.9833C31.0886 22.8269 31.9605 21.0626 32 21.0626C32.0395 21.0626 32.9114 22.8269 33.9375 24.9833ZM4.125 22.0494C3.4275 22.3106 3.1515 23.1887 3.59375 23.7398C3.85625 24.067 6.91625 25.4078 7.41187 25.4128C8.242 25.4212 8.714 24.1691 8.09375 23.6042C7.82475 23.3591 4.69712 21.9651 4.4375 21.9746C4.36875 21.9772 4.22813 22.0109 4.125 22.0494ZM57.75 22.6752C56.8219 23.066 55.964 23.5033 55.8438 23.647C55.3179 24.2748 55.804 25.4164 56.5973 25.4164C57.0884 25.4164 60.1357 24.074 60.4062 23.7385C60.7166 23.3536 60.6867 22.703 60.3438 22.3749C59.8326 21.8863 59.544 21.9197 57.75 22.6752ZM0.528625 33.8253C0.31725 33.9125 0 34.5548 0 34.8955C0 35.0454 0.164375 35.3363 0.365375 35.5422L0.73075 35.9165H3.73338C6.66925 35.9165 6.74312 35.9101 7.05562 35.6284C7.545 35.1872 7.59363 34.6415 7.1875 34.1471L6.85275 33.7396L3.77012 33.7497C2.07463 33.7553 0.616 33.7893 0.528625 33.8253ZM56.8125 34.1471C56.4064 34.6415 56.455 35.1872 56.9444 35.6284C57.2569 35.9101 57.3307 35.9165 60.2666 35.9165H63.2692L63.6346 35.5422C63.8356 35.3363 64 35.0454 64 34.8955C64 34.5245 63.679 33.9163 63.4319 33.8191C63.3206 33.7755 61.861 33.7396 60.1884 33.7396H57.1473L56.8125 34.1471ZM14.8125 47.67C15.225 48.2817 16.1816 49.4167 16.9385 50.1923C18.432 51.7232 19.9151 52.8647 21.8616 53.982L23.1068 54.6966L21.0221 55.5379C16.4119 57.3983 11.7534 58.7074 6.34338 59.6628L5.87425 59.7456L6.14375 59.0035C7.30288 55.8121 8.24125 53.2975 8.293 53.2445C8.327 53.2097 9.13287 53.0439 10.0836 52.8759C12.8265 52.3914 13.7636 52.1245 14.0914 51.7342C14.4065 51.3587 14.4478 51.0214 14.2296 50.6018C13.8706 49.9114 13.5534 49.8746 11.7299 50.312C9.92925 50.7438 7.797 51.0674 7.58862 50.9403C7.49312 50.882 6.6395 50.1717 5.6915 49.3618L3.96813 47.8892L4.57775 47.803C4.91313 47.7556 5.91875 47.6518 6.8125 47.5723C8.42313 47.429 12.2831 46.8813 13.125 46.6767C13.975 46.4701 14.022 46.4978 14.8125 47.67ZM52.75 46.9958C53.8156 47.1702 55.5594 47.4009 56.625 47.5085C57.6906 47.6162 58.8937 47.7458 59.2986 47.7967L60.0348 47.8892L58.3099 49.3618C57.3613 50.1717 56.5069 50.882 56.4114 50.9403C56.203 51.0674 54.0708 50.7438 52.2701 50.312C50.4466 49.8746 50.1294 49.9114 49.7704 50.6018C49.5526 51.0207 49.5934 51.3586 49.9062 51.731C50.2219 52.1065 51.6732 52.5118 54.2245 52.9369C55.001 53.0664 55.6661 53.2028 55.7026 53.24C55.758 53.2968 56.6717 55.7423 57.8563 59.0035L58.1258 59.7456L57.6566 59.6645C52.4729 58.7672 47.3105 57.3045 42.7325 55.436L40.9024 54.6891L42.045 54.0412C45.1186 52.2985 47.9347 49.7143 49.54 47.1634C49.9168 46.5648 49.9604 46.5356 50.375 46.6051C50.6156 46.6456 51.6844 46.8213 52.75 46.9958Z" fill="#009C55"/>
</svg>
